<svg xmlns="http://www.w3.org/2000/svg" width="257" height="261.309"  xmlns:v="https://vecta.io/nano"><path fill="#3e8ede" d="M128.74 258.007c-69.18 0-125.47-57.22-125.47-127.555 0-70.33 56.3-127.566 125.47-127.566 69.172 0 125.445 57.234 125.445 127.566S197.912 258.007 128.74 258.007m-.48-177.855c.16 0 10.19 10.922 10.19 19.66 0 9.47-7.266 11.727-9.71 11.727-.12 0-.27-.008-.43-.016h-.102l-.422.016c-2.445 0-9.71-2.258-9.71-11.727.001-8.738 10-19.66 10.185-19.66m-94.465 57.394H45.24V116.05h19.22v-9H45.24V95.105H65.1v-8.977H33.795v51.418zm104.84-55.843h12.07l-14.027-51.43h-15.426l-14.54 51.43h11.18l3.215-11.496h14.63l2.898 11.496zM133.62 61.5H123.1l4.898-22.367h.8l4.82 22.367zm52.996 50.34c0 15.105 6.89 26.6 21.43 26.6 14.594 0 21.555-11.484 21.555-26.6s-6.96-26.6-21.555-26.6c-14.54.001-21.43 11.485-21.43 26.6m12.192 0c0-9.87 2.383-17.895 9.238-17.895 6.895 0 9.375 8.023 9.375 17.895s-2.48 17.902-9.375 17.902c-6.856.001-9.238-8.03-9.238-17.902m-75.414 131.934c.668-4.977 1.332-12.96 1.332-22.312v-1.578c0-13.164-.477-17.61-9.133-20.53-13.344-4.496-18.81-19.645-15.875-38.516L55.045 45.324C31.81 66.156 17.15 96.582 17.15 130.453c0 60.742 47.215 110.484 106.243 113.32m5.293-73.645c-17.773-4.21-24.367-20.68-24.367-35.3L65.21 37.23c-2.555 1.793-5.03 3.707-7.426 5.7l47.254 114.02c6.836 16.738 19.266 11.188 22.273 25.008.72 3.34.766 4.81.766 4.81h1.336s.016-1.47.766-4.81c3.008-13.82 15.406-8.27 22.25-25.008.047-.137 38.656-93.29 47.25-114.02a112.4 112.4 0 0 0-7.43-5.699l-39.102 97.598c0 14.62-6.61 31.1-24.383 35.3h-.077zm-.02-29.464c-7.54-1.71-16.93-9.316-18.152-19.11-.44-3.73-.793-4.773-.254-12.168L75.982 30.492a113.95 113.95 0 0 0-8.082 4.902l41.598 95.035c4.965 10.617 13.66 10.82 16.66 17.152 1.805 3.746 1.97 7.105 2 7.38h1.137c.03-.273.22-3.633 1.992-7.38 3.023-6.332 11.72-6.535 16.664-17.152.03-.086 31.367-71.617 41.61-95.035a103.23 103.23 0 0 0-8.094-4.902l-34.234 78.895c.54 7.395.18 8.438-.29 12.168-1.223 9.793-10.62 17.398-18.12 19.11h-.156zm.477-13.4l.52-4.297c2.164-10 9.3-8.746 14.25-18.56.02-.04.078-.145.078-.145.152-.363 24.402-53.258 34.52-75.348a109.41 109.41 0 0 0-49.77-11.934c-17.875 0-34.785 4.31-49.785 11.934l34.55 75.348a1.03 1.03 0 0 0 .078.145c4.922 9.812 12.043 8.56 14.203 18.56l.523 4.297h.832zm111.183 3.188c0-33.87-14.68-64.297-37.88-85.13l-44.707 115.51c2.965 18.87-2.53 34.02-15.88 38.516-8.652 2.922-9.125 7.367-9.125 20.53v1.578c0 9.352.695 17.336 1.332 22.312 59.063-2.835 106.258-52.577 106.258-113.32M52.412 163.96s1.645 3.57 2.988 6.094c1.328 2.53 3.152 5.6 3.152 5.6l-2.945 1.738s-2.238-3.785-4.29-8.156l-4.672 2.453 3.957 7.727-2.984 1.746-3.984-7.863c-.64.32-8.242 4.316-8.242 4.316l-1.824-3.676 18.843-9.97zm11.774 19.418l2.594 3.176L50.475 200.4l-2.64-3.172L64 183.515l.196-.137zM79.28 197.9l3.23 2.34-4.19 22.844-3.688-2.156 1.03-5.11c-.18-.148-2.336-1.453-4.422-2.953-2.117-1.547-4.188-3.277-4.383-3.414l-4.496 2.7-3.164-2.75 20.083-11.5zm-9.418 9.695c.38.332 1.758 1.465 3.184 2.504 1.46 1.023 2.9 2.004 3.344 2.195.21-.95 1.69-8.46 2.004-9.852l-8.532 5.153m22.864-1.297s3.434 1.746 8.32 3.45c3.336 1.172 6.172 2.086 8.945 2.71l-.97 3.285s-2.648-.473-6.965-1.816l-5.852 17-3.824-1.352 5.816-17.023c-4.012-1.523-6.812-3.04-6.812-3.04l1.34-3.215zm67.086 4.352c1.395.75 2.4 2.066 2.96 3.938.246.79.38 1.55.38 2.285 0 3.012-2.078 5.383-5.828 6.582l-2.453.762 2.453 8.004-3.723.98-6.312-20.805 5.637-1.78c2.827-.895 5.175-.875 6.886.035m-7.887 3.925c.18.633 1.746 5.715 1.934 6.344.777-.234 2.477-.79 2.477-.79.562-.168 1.898-.707 2.53-1.945.21-.402.312-.855.312-1.312 0-.36-.07-.727-.18-1.117-.246-.738-.69-1.32-1.355-1.672-1.145-.625-2.69-.465-3.648-.176a174.37 174.37 0 0 0-2.071.667m20.558-12.992l18.422 13.72-3.273 2.348-4.07-3.137c-.215.12-2.113 1.488-4.156 2.72-1.94 1.188-4.027 2.238-4.238 2.36a780.9 780.9 0 0 1 .812 5.082l-3.52 1.707-3.086-22.97 3.11-1.828zm2.118 14.54c.55-.27 1.977-1.062 3.395-1.93 1.27-.785 2.285-1.426 2.79-1.844l-7.684-5.965 1.5 9.74m18.93-33.445l16.062 14.57-2.895 3.45-17.344-5.094c1.695 1.645 11.043 11.66 11.043 11.66l-2.82 2.6-15.145-15.637 3.566-3.234 16.812 5.027c-1.7-1.645-11.727-10.4-11.727-10.4l2.448-2.92zm7.344-10.875l18.605 10.97-1.898 3.328-18.7-11.004 1.992-3.293zm8.055-18.152l3.195 1.69-.32.375c-1.03 1.28-1.508 1.94-2 3.383-.238.656-.523 1.922-.04 2.875.234.5.66.863 1.273 1.06 1.414.492 2.633-.77 4.04-2.223 1.965-2.03 4.402-4.53 8.332-3.188 3.996 1.38 5.352 4.996 3.703 9.914-.5 1.508-1.426 2.79-2.258 3.977l-.2.262-3.297-1.566.32-.395c.398-.473 1.777-2.113 2.297-3.738.496-1.43.445-3.844-1.688-4.578-1.777-.625-3.105.766-4.656 2.395-1.88 2.016-4.047 4.285-7.61 3.05-1.566-.543-2.734-1.55-3.395-2.898-.812-1.648-.836-3.75-.1-5.94.477-1.477 1.28-3.012 2.21-4.203l.18-.252z"/></svg>