<svg xmlns="http://www.w3.org/2000/svg" xmlns:xlink="http://www.w3.org/1999/xlink" width="978.255" height="489.146" viewBox="0 0 258.83 129.42" xmlns:v="https://vecta.io/nano"><style><![CDATA[.B{fill-rule:evenodd}]]></style><path fill="#fff" d="M0 0h258.82v129.4H0z" paint-order="markers fill stroke"/><path d="M195.1 65.684v7.118h-1.94v-7.118h-63.736v63.734h129.4V65.684z" class="B"/><g transform="rotate(180 -164.05 -11.537)"><use xlink:href="#A" x="-457.5" y="-152.49"/><use xlink:href="#B" x="-457.5" y="-152.49"/></g><path id="A" d="M64.705 64.708l-7.878 8.555 7.02 32.612-9.826-30.773-33.46-10.4h-4.383v.97H0v63.732l63.732.004V113.24h.972zm-34.133 6.307l1.6.498c2.675 12.894 12.8 23.056 25.67 25.765l.515 1.607c-14.093-2.61-25.198-13.748-27.784-27.868z" fill="#0b89c6"/><path id="B" d="M.015.007v63.735h16.177v.968h48.53l-8.54-7.887-32.562 7.03 30.73-9.84 10.373-33.51v-4.32h-.972V.006zm58.41 30.52l-.497 1.6c-12.88 2.676-23.03 12.82-25.735 25.707l-1.602.513c2.61-14.114 13.73-25.236 27.834-27.82z" fill="#004489"/><path d="M129.42.01v63.73h63.736v-7.112h1.94v7.112h63.736V.01z" class="B"/><path id="C" d="M216.23 26.2c-.6 0-.738-.47-1.048-1.823-.628-2.74-1.583-2.74-5.13-2.738l-3.193.01.005 6.716c-.02 5.825-.05 13.036.213 14.185.104.455 1.135.823 1.66.92l.982.126c1.017.12 1.48.175 1.76.605.24.368.187.75-.132.997-.2.147-.567.147-2.597.077l-3.992-.093a77.3 77.3 0 0 0-4.103.104c-1.053.052-1.612.08-2.145-.03a.61.61 0 0 1-.38-.437c-.057-.233.002-.48.165-.683.282-.345.55-.374 1.264-.45.328-.035.697-.077 1.166-.144.625-.112 1.92-.6 1.984-.968.138-.892.184-12.925.205-18.71l.01-2.2-4.838.015c-1.35.014-2.217.5-3.303 1.857-.248.374-.948 1.322-1.443 1.94-.3.36-.775.717-1.19.544-.153-.064-.4-.25-.342-.794l1.684-6.707c.057-.262.27-.708.717-.708.502 0 .6.162.96.853l.16.3c.313.506.558.904 2.726.86l16.397.07c.075 0 .222-.04.248-.124.64-1.28 1.02-1.998 1.51-1.998.357.001.784.196.784 1.114l-.005 6.63a.7.7 0 0 1-.758.686" fill="#fff" class="B"/><path id="D" d="M167.82 45.66c-.185.207-.213.22-.242.222l-.938.083c-3.63-3.563-11.69-12.38-16.504-17.65l-3.17-3.46.124 18.07c.084.408.8.538 1.198.608.504.072.88.113 1.152.144.766.083 1.034.112 1.316.457.306.38.22.768.01.967s-.683.19-2.293.135a62.07 62.07 0 0 0-2.698-.054c-.893.006-1.78.037-2.49.06-1.624.057-1.926.057-2.1-.054-.13-.086-.218-.227-.244-.39-.022-.146-.005-.37.202-.625.28-.343.544-.372 1.262-.45l1.166-.144c.562-.103 1.216-.434 1.25-.633.185-1.112.126-14.118.087-19.03-.05-1.304-.13-1.687-.2-1.907-.406-1.14-2.25-1.264-3.038-1.316-.193-.014-.308-.02-.388-.04l-.25-1.18 5.627-.34c.478.262 1.405.95 2.257 1.848l16.766 18.46-.712-17.864c-.086-.5-.836-.627-1.195-.69-.562-.08-.967-.126-1.207-.152-.717-.077-.985-.106-1.267-.452-.306-.378-.22-.766-.01-.965s.685-.192 2.304-.133c.764.026 1.717.06 2.685.052.898-.007 1.783-.038 2.494-.06 1.62-.057 1.923-.058 2.1.055.13.087.216.23.24.392.022.142.002.366-.2.62-.282.346-.55.375-1.267.452l-1.164.142c-.69.126-1.25.455-1.244.57s.573 19.13.562 20.768l.057 3.407-.03.078z" fill="#fff" class="B"/><path id="E" d="M179.25 31.77l6.402.08-3.217-8.6-3.185 8.51zm17.533 12.915c-.03.233-.18.408-.31.493-.36.15-.976.13-2.23.08l-2.623-.06-2.42.058c-1.672.054-2.163.063-2.4-.092-.222-.173-.374-.565-.218-.95.172-.412.484-.447 1.167-.524l1.11-.142c.233-.046.78-.155.9-.35-.044-.31-1.005-2.963-2.365-6.632l-1.02-2.736-7.882-.064-3.323 8.94c-.07.207-.07.37-.005.48.133.228.538.306.778.354l.968.112c.708.066 1.097.103 1.365.746.073.198.06.392-.037.548s-.262.248-.47.268c-.893.086-1.75.057-2.74.023l-2.347-.04-2.215.05c-1.37.04-1.627.04-1.785-.055-.167-.103-.35-.303-.37-.565-.012-.153.03-.38.286-.594.36-.294.637-.32 1.31-.38l1.353-.15c.458-.063 1.462-.5 1.725-1.026.21-.42 2.405-6.254 4.53-11.894l.1-.242L182.3 18.06l1.333-.193c.26.257 2.788 6.848 6.344 16.136l3.386 8.792c.29.49 1.123.63 1.57.706 1.158.187 1.36.26 1.655.6.205.23.225.45.207.594" fill="#fff" class="B"/><path id="F" d="M231.15 20.15c-2.73 0-4.984.87-6.698 2.583-2.516 2.516-3.412 6.408-3.412 9.212 0 2.75.96 6.92 3.666 9.626 1.684 1.684 3.77 2.537 6.2 2.537 3.52 0 6.188-1.146 7.933-3.406 1.58-2.047 2.38-4.95 2.38-8.633 0-3.974-1.07-7.06-3.18-9.17-2.39-2.39-5.344-2.748-6.89-2.748m12.085 19.78c-.158.244-3.957 5.944-12.124 5.944-4.196 0-7.772-1.357-10.34-3.925-2.514-2.513-3.954-6.094-3.954-9.828 0-3.577 1.3-6.895 3.632-9.347 2.678-2.8 6.562-4.28 11.233-4.28 3.95 0 7.567 1.442 10.185 4.058 2.473 2.473 3.835 5.796 3.835 9.356 0 2.178-.19 4.593-2.466 8.022" fill="#fff" class="B"/><use xlink:href="#C" x="-23.328" y="64.813"/><use xlink:href="#D" x="75.965" y="64.816"/><use xlink:href="#E" x="20.112" y="64.811"/><use xlink:href="#F" x="-75.927" y="64.813"/></svg>