<svg xmlns="http://www.w3.org/2000/svg" width="2500" height="2500" viewBox="0 0 192.756 192.756"  fill-rule="evenodd" xmlns:v="https://vecta.io/nano"><path fill="#fff" d="M0 0h192.756v192.756H0V0z"/><g fill="#1879bf"><path d="M33.956 103.895c.493 0 .432-.282.432-.806v-2.543c0-.525-.052-.693.25-.693 1.046 0 1.333-.095 1.333-1.03V89.37c0-2.574-1.82-2.15-2.333-3.1-.727-1.272 1.36-1.272.604-4.03-.192-.623-.683-1-1.625-1s-1.434.4-1.626 1c-.758 2.756 1.333 2.756.603 4.03-.515.94-2.33.515-2.33 3.1v9.453c0 .935.282 1.03 1.333 1.03.296 0 .247.168.247.693v2.543c0 .523-.062.806.434.806l2.68.001zm-8.276-20.5c-.928 1-2.4 3.298-1.44 5.218 1.95.75 1.803-6.18 4.23-6.06 1.203 1.1-.357 4.38-.838 5.82-.602 1.77-1.08 5.5-2.22 7.288-.957 1.5-.238 6.2-.54 7.83-.808.8-3 .24-3.928.1 0-1.857-.242-3.326-.54-6.296-.03-.6-.66-9.78-.15-10.9 1.05-2.3 6.778-6.72 7.56-7.56.7-.75 3.116-3.24 4.048-3.24.658.45.27 1.502.12 1.92-.926 2.3-4.948 4.6-6.296 5.88zm13.976 0c.898 1 2.37 3.298 1.44 5.218-1.98.75-1.83-6.18-4.258-6.06-1.17 1.1.387 4.38.87 5.82.6 1.77 1.08 5.5 2.22 7.288.932 1.5.24 6.2.5 7.83.84.8 3 .24 3.958.1 0-1.857.212-3.326.5-6.296.06-.6.692-9.78.18-10.9-1.048-2.3-6.78-6.72-7.557-7.56-.72-.75-3.12-3.24-4.05-3.24-.7.45-.27 1.502-.12 1.92.933 2.3 4.95 4.6 6.3 5.88zm-22.308-3.1c-.512.48-1.654.8-2.437 1.86-.3-.57.48-1.95 1.412-2.764.692-.573 2.044-1.503 2.435-1.593.302.693-.78 1.744-1.4 2.496zm-1.593 3.735c-.872.813-1.802 1.144-3.007 2.616a8.862 8.862 0 0 1-.151-4.388c.423-1.382 1.112-2.915 2.286-3.397-.24.782-.634 1.865-.724 3.337-.5 2.014-.8 2.075-.688 2.344.118 0 .778-1.052 1.592-1.863.96-.962 2.162-1.174 2.943-1.743-.12.4-.8 1.622-2.25 3.094zm-4.24 8.326c-1.17-2.104-1.292-3.638-1.382-5.4.06-1.233.66-4.087 1.562-4.507-.27 2.583.422 2.825.15 4.958 0 .12-.3 2.344-.3 2.463.36-.06.03-2.044 4.148-4.897-.902 1.56-.482 2.043-2.104 4.117-1.894 1.864-2.164 3.698-2.074 3.277zm1.654 1.984c-.874 1.263-.723 1.895-.932 2.495-2.076-1.203-4.42-5.98-3.55-8.354.54 1.802 1.293 2.193 1.834 3.695.932 2.256.783 2.948 1.383 3.457-.123-1.17.27-2.554.66-3.576.573-.87 1.02-2.014 1.444-2.406.448 1.655.12 3.008-.84 4.7zm1.864 4.086c0 1.835-.333 2.645-.48 3.998-3.578-1.17-5.442-5.26-5.442-7.272 1.084 2.465 2.674 2.434 4.75 5.92.18-1.32-.36-.33-.422-2.823.06-2.616.602-2.706.692-4.327.66.72.903 3.605.903 4.505zm2.973 5.2c.273 1.354.393 2.946.602 4.117-2.044-.75-2.556-.18-5-1.712-1.1-.6-3.096-3.126-2.974-4.93 2.402 2.675 2.825 2.373 3.998 3.365 1.08.87 1.95 2.166 2.734 1.985.057-.722-1.773-2.286-1.534-6.793.48.5 1.802 2.555 2.163 3.967zm4.057 3.367c.632.9.483 1.292 2.103 3.155-.392.182-2.702.78-4.236.842-1.02 0-4.627-.96-5.83-3.427 2.07 1.112 2.103.842 4.868 1.443 1.982.45 3.396 1.08 3.937 1.022-.12-.27-1.654-.902-2.704-2.226-1.054-1.412-.812-3.004-1.745-4.178.632-.178 3.094 2.708 3.606 3.37zM47.82 80.275c.482.48 1.655.8 2.405 1.86.33-.57-.48-1.95-1.4-2.764-.66-.573-2.013-1.503-2.435-1.593-.3.693.78 1.744 1.44 2.496zm1.593 3.755c.84.813 1.773 1.144 2.976 2.616a8.85 8.85 0 0 0 .151-4.388c-.4-1.382-1.1-2.915-2.285-3.397.27.782.632 1.865.722 3.337.5 2.014.812 2.075.693 2.344-.12 0-.783-1.052-1.593-1.863-.933-.962-2.136-1.174-2.945-1.743.118.4.84 1.622 2.28 3.094zm4.2 8.326c1.2-2.104 1.3-3.638 1.38-5.4-.06-1.233-.66-4.087-1.53-4.507.24 2.583-.45 2.825-.152 4.958 0 .12.272 2.344.272 2.463-.33-.06-.03-2.044-4.118-4.897.872 1.56.45 2.043 2.074 4.117 1.923 1.864 2.162 3.698 2.074 3.277zM52 94.34c.84 1.263.7 1.895.902 2.495 2.073-1.203 4.446-5.98 3.546-8.354-.5 1.802-1.292 2.193-1.802 3.695-.963 2.256-.812 2.948-1.383 3.457.12-1.17-.302-2.554-.7-3.576-.542-.87-1.022-2.014-1.444-2.406-.42 1.655-.12 3.008.872 4.7zm-1.896 4.086c0 1.835.36 2.645.512 3.998 3.546-1.17 5.44-5.26 5.44-7.272-1.114 2.465-2.675 2.434-4.777 5.92-.182-1.32.36-.33.42-2.823-.06-2.616-.602-2.706-.693-4.327-.66.72-.902 3.605-.902 4.505zm-2.974 5.2c-.27 1.354-.36 2.946-.57 4.117 2.013-.75 2.522-.18 4.958-1.712 1.1-.6 3.126-3.126 3.004-4.93-2.403 2.675-2.853 2.373-3.996 3.365-1.082.87-1.982 2.166-2.767 1.985-.058-.722 1.776-2.286 1.564-6.793-.508.5-1.833 2.555-2.192 3.967zm-4.058 3.367c-.6.9-.45 1.292-2.105 3.155.42.182 2.707.78 4.27.842 1 0 4.597-.96 5.796-3.427-2.072 1.112-2.102.842-4.867 1.443-1.984.45-3.366 1.08-3.937 1.022.12-.27 1.684-.902 2.706-2.226 1.05-1.412.8-3.004 1.773-4.178-.662-.178-3.125 2.708-3.637 3.37zm-15.627 8.476l-.602-.3s3.82-4.66 10.37-4.298 6.1 1.893 9.617 1.654c.4-.03-.302.48-.302.48s-3.424 1.32-7.66-.12c-4.2-1.442-6.947-2.314-11.423 2.587z"/><path d="M37.813 115.47l.604-.3s-3.79-4.66-10.342-4.298c-6.58.36-6.13 1.893-9.646 1.654-.39-.03.3.48.3.48s3.427 1.32 7.666-.12 6.97-2.314 11.418 2.587zm29.956-6.6h-2.287v-1.41h6.25v1.41h-2.286v6.218H67.77v-6.218zm4.486-1.41h1.52v2.875h.03a1.938 1.938 0 0 1 1.613-.919c1.614 0 2.02.907 2.02 2.276v3.396H75.92v-3.12c0-.907-.266-1.357-.97-1.357-.823 0-1.175.46-1.175 1.583v2.895h-1.52v-7.63zm7.35 5.236c.043.96.514 1.4 1.357 1.4.6 0 1.1-.374 1.196-.717h1.336c-.427 1.304-1.336 1.86-2.585 1.86-1.74 0-2.82-1.197-2.82-2.906 0-1.656 1.145-2.917 2.82-2.917 1.88 0 2.79 1.58 2.682 3.28h-3.986v.001zm2.47-.962c-.14-.768-.47-1.174-1.208-1.174-.96 0-1.24.748-1.26 1.174h2.47zm11.25.47c0 2.062-1.22 3.066-3.26 3.066-2.05 0-3.25-.994-3.25-3.066v-4.744h1.678v4.744c0 .833.214 1.656 1.57 1.656 1.196 0 1.58-.523 1.58-1.656v-4.744h1.678v4.744zm1.12-4.744h1.667l3.183 5.118h.023v-5.118h1.57v7.63H99.21l-3.174-5.106h-.022v5.106h-1.57v-7.63zm11.54 1.303h1.836c.748 0 1.156.32 1.156 1.06 0 .77-.408 1.09-1.156 1.09h-1.836v-2.15zm-1.677 6.326h1.678v-2.98h1.678c.844 0 1.152.352 1.27 1.154.084.608.062 1.346.266 1.826h1.678c-.3-.428-.287-1.325-.32-1.806-.053-.77-.29-1.57-1.11-1.783v-.022c.844-.342 1.207-1.016 1.207-1.91 0-1.154-.863-2.106-2.232-2.106h-4.113l-.002 7.628zm8.613-3.355c.02-.426.297-1.174 1.258-1.174.738 0 1.07.406 1.21 1.174h-2.467zm3.982.962c.107-1.7-.8-3.28-2.682-3.28-1.678 0-2.82 1.26-2.82 2.917 0 1.71 1.078 2.906 2.82 2.906 1.252 0 2.158-.557 2.586-1.86h-1.334c-.098.343-.6.717-1.197.717-.844 0-1.314-.44-1.355-1.4l3.982-.001zm1.037-2.116h-.908v-1.014h.908v-.43c0-.972.61-1.678 1.848-1.678.268 0 .547.032.803.045v1.13a4.798 4.798 0 0 0-.557-.031c-.404 0-.576.17-.576.63v.33h1.047v1.014h-1.047v4.51h-1.518v-4.51zm8.217 4.51h-1.443v-.77h-.033a1.97 1.97 0 0 1-1.688.92c-1.613 0-2.018-.91-2.018-2.277v-3.396h1.516v3.118c0 .91.268 1.357.973 1.357.822 0 1.174-.46 1.174-1.582v-2.894h1.52l-.001 5.524zm3.492-1.304c-.93 0-1.23-.866-1.23-1.656 0-.82.373-1.57 1.23-1.57.984 0 1.293.8 1.293 1.698 0 .8-.425 1.527-1.293 1.527zm2.735-4.218h-1.44v.737h-.02c-.36-.643-.918-.888-1.645-.888-1.55 0-2.37 1.304-2.37 2.734 0 1.518.703 2.778 2.36 2.778.662 0 1.324-.278 1.656-.855h.02v.727c.01.79-.375 1.368-1.22 1.368-.533 0-.992-.192-1.13-.758h-1.508c.074 1.26 1.348 1.772 2.436 1.772 2.543 0 2.863-1.538 2.863-2.446l.001-5.17zm2.277 2.167c.02-.426.3-1.174 1.26-1.174.738 0 1.068.406 1.207 1.174h-2.467zm3.985.962c.107-1.7-.8-3.28-2.682-3.28-1.676 0-2.82 1.26-2.82 2.917 0 1.71 1.078 2.906 2.82 2.906 1.25 0 2.158-.557 2.584-1.86h-1.334c-.096.343-.588.717-1.195.717-.844 0-1.316-.44-1.357-1.4l3.984-.001zm1.957-.962c.02-.426.297-1.174 1.258-1.174.738 0 1.07.406 1.207 1.174h-2.465zm3.982.962c.107-1.7-.8-3.28-2.682-3.28-1.678 0-2.82 1.26-2.82 2.917 0 1.71 1.078 2.906 2.82 2.906 1.252 0 2.16-.557 2.586-1.86h-1.334c-.098.343-.6.717-1.197.717-.846 0-1.314-.44-1.355-1.4l3.982-.001zm6.133-3.356h.02l.963 2.8h-1.977l.993-2.8zm-3.73 5.75h1.7l.598-1.697h2.854l.576 1.697h1.742l-2.854-7.63h-1.72l-2.896 7.63zm10.31-1.304c-.93 0-1.23-.866-1.23-1.656 0-.82.373-1.57 1.23-1.57.982 0 1.293.8 1.293 1.698 0 .8-.428 1.527-1.293 1.527zm2.734-4.218h-1.44v.737h-.02c-.363-.643-.92-.888-1.645-.888-1.55 0-2.373 1.304-2.373 2.734 0 1.518.705 2.778 2.36 2.778.66 0 1.326-.278 1.656-.855h.02v.727c.01.79-.375 1.368-1.22 1.368-.533 0-.994-.192-1.133-.758h-1.508c.076 1.26 1.348 1.772 2.44 1.772 2.54 0 2.86-1.538 2.86-2.446v-5.17h.002zm2.276 2.167c.02-.426.3-1.174 1.262-1.174.736 0 1.068.406 1.205 1.174h-2.467zm3.986.962c.105-1.7-.803-3.28-2.682-3.28-1.68 0-2.82 1.26-2.82 2.917 0 1.71 1.078 2.906 2.82 2.906 1.25 0 2.158-.557 2.584-1.86h-1.334c-.096.343-.6.717-1.197.717-.844 0-1.314-.44-1.357-1.4l3.986-.001zm.662-3.13h1.44v.77h.03c.385-.62 1.05-.92 1.69-.92 1.61 0 2.02.907 2.02 2.276v3.396h-1.518v-3.12c0-.907-.268-1.357-.973-1.357-.822 0-1.176.46-1.176 1.583v2.895h-1.516v-5.523h.002zm9.86 1.943c-.094-.62-.5-.95-1.12-.95-.973 0-1.295.982-1.295 1.794 0 .792.31 1.742 1.262 1.742.705 0 1.11-.448 1.207-1.122h1.463c-.19 1.463-1.207 2.266-2.66 2.266-1.666 0-2.79-1.176-2.79-2.832 0-1.72 1.027-2.99 2.82-2.99 1.305 0 2.502.684 2.596 2.094h-1.485v-.001zm4.907 4.273c-.334.887-.855 1.25-1.904 1.25a9.02 9.02 0 0 1-.928-.052v-1.25l.887.054c.52-.054.693-.6.52-1.036l-1.943-5.18h1.625l1.25 3.782h.02l1.205-3.782h1.572l-2.306 6.217zM86.12 95.08c0 6.263-3.385 9.27-10.282 9.27s-10.315-3.006-10.315-9.27V81.225h6.96V93.53c0 2.31 0 5.188 3.387 5.188 3.3 0 3.3-2.88 3.3-5.188V81.225h6.96V95.08zm4.174-13.856h7.118l6.58 12.083h.063V81.225h6.58v22.586h-6.768l-6.93-12.337h-.062v12.337h-6.58V81.225zm24.612 0h6.96v7.845h6.52v-7.845h6.96v22.586h-6.96V94.86h-6.52v8.952h-6.96V81.225zm38.248 8.415c-.127-.824-.76-3.322-3.64-3.322-3.26 0-4.305 3.162-4.305 6.2s1.045 6.2 4.305 6.2c2.34 0 3.258-1.645 3.67-3.765h6.832c0 4.555-3.7 9.396-10.312 9.396-7.307 0-11.453-5.157-11.453-11.832 0-7.118 4.494-11.83 11.453-11.83 6.2.03 9.62 3.29 10.22 8.952h-6.77 0zm16.733-3.04h3.26c2.656 0 3.447.823 3.447 2.25 0 2.023-1.77 2.246-3.066 2.246h-3.64V86.6zm-6.96 17.21h6.96v-7.876h3.703c2.752 0 2.94 2.247 3.133 4.4.094 1.17.22 2.34.568 3.477h6.96c-.635-1.043-.664-3.732-.762-4.838-.252-2.817-1.422-4.905-3.322-5.632 2.31-.855 3.387-3.322 3.387-5.663 0-4.273-3.418-6.453-7.37-6.453h-13.256v22.585z"/></g></svg>