<svg xmlns="http://www.w3.org/2000/svg" viewBox="0 0 580.82 177.96"  fill="#0093d5" xmlns:v="https://vecta.io/nano"><path d="M164 32.58c3.86 4.6 10.6 7.3 14.56 11.92-2.83-13.63-13.35-24.76-25.8-27.42 6.07 4.57 7.38 10.92 11.23 15.5zM14.48 67.13c8.57-18.65 21.36-14.7 26.77-32.47-3 5.45-17 7.75-23.5 21.72 3.3-8.3 1.65-21 7.25-27.85-16.74 12.35-9.6 32.33-10.5 38.6zM30 111.86c1.54 7.26-3 17.74 4.2 27.76-7.44-8.34-23.2-10.46-29.62-23.14 8 31 29 24.6 38.4 31.33-7.76-11.15-1.4-18.56-12.97-35.95zm-2.4 19.45C23 114 31.18 108 24.93 91.4c-.65 9.36-6.9 13.92-2.68 31C14.82 107.94 3.33 102.54 0 92.6c.23 27.18 22.07 31.2 27.6 38.7zm33.54 29c-6.43-8.9-2-13.93-20.1-30.1 3.82 5.9-.12 13.32 12.06 24.86-11.92-7-28.36-4-36.3-13.4 13.62 26.07 37.55 15.43 44.33 18.67zm87.42-5.23c12.18-11.54 8.24-19 12.06-24.86-18.06 16.16-13.67 21.2-20.1 30.1 6.78-3.24 30.7 7.4 44.32-18.64-7.92 9.42-24.36 6.4-36.28 13.44zm18.9-15.5c7.17-10 2.66-20.5 4.2-27.76-11.56 17.4-5.2 24.8-13 36 9.44-6.73 30.36-.35 38.4-31.33-6.4 12.66-22.15 14.78-29.6 23.12zm-28.86 21.95a89.2 89.2 0 0 0-19.75-3 47.75 47.75 0 0 0-18 3.06 47.78 47.78 0 0 0-18-3.06 89.2 89.2 0 0 0-19.75 3c-10.87 2.9-20.26 5.13-28.45 1 7.85 7 17 9.45 30.23 8 11-1.18 19.9-6.7 30.3-6.6h.4a55.47 55.47 0 0 0-17.12 13.31l5 .67s5.27-10.6 17.4-13.35c12.12 2.76 17.4 13.35 17.4 13.35l5-.67A55.63 55.63 0 0 0 106.1 164h.4c10.38-.08 19.27 5.43 30.28 6.6 13.23 1.43 22.4-1.06 30.24-8-8.2 4.1-17.58 1.85-28.45-1.04zM25.7 72.63C21.2 81.23 14.23 83.2 15 101 11.22 85.18 2.24 79.32 2.35 69.23-3.9 95.53 12.8 98.65 17.07 109.67c-.63-15.8 9.45-18.98 8.6-37.04zm6.26-20.3c-1.56 2.18-2.65 3.1-6.8 6.54A33.77 33.77 0 0 0 13 78.64c.43-9.64-5.53-23.5-1.57-33.6-15.33 21.65.88 34.62 1.45 42.46C16.86 72.42 26 72.3 31.93 52.33zm156.7 26.3a33.82 33.82 0 0 0-12.11-19.77c-4.16-3.43-5.25-4.36-6.8-6.54 5.93 20 15.07 20.1 19 35.18.57-7.84 16.78-20.8 1.44-42.46 4 10.1-1.95 23.95-1.52 33.6zm13 14c-3.33 9.94-14.82 15.34-22.25 29.84 4.2-17.12-2-21.68-2.68-31-6.25 16.62 2 22.6-2.66 39.9 5.53-7.58 27.37-11.6 27.6-38.8zm-25.63-20c-.85 18.06 9.24 21.25 8.6 37 4.3-11 21-14.14 14.72-40.44.12 10.1-8.86 16-12.6 31.72.7-17.7-6.26-19.68-10.7-28.28zm-138.34-40c3.87-4.6 5.18-10.93 11.24-15.5-12.44 2.66-23 13.8-25.8 27.42 3.9-4.66 10.65-7.37 14.5-11.97zm122.77 2.08c5.4 17.77 18.2 13.82 26.76 32.47-.9-6.27 6.24-26.25-10.5-38.6 5.6 6.86 3.94 19.55 7.25 27.85-6.53-14.02-20.5-16.32-23.55-21.77zM117 44.75A41.92 41.92 0 0 0 106.77 42v2.28a40 40 0 0 1 9.4 2.58 6 6 0 0 0 .83-2.11zm-2.6-22l.68-.6-1.3-.55-3.42-.07-.9.62-2-.17v.5a34.75 34.75 0 0 1 3.52.37l1.67-.15zm-6.63 73.75c0-.58-.77-1.15-1.9-1.7h-.2c0 .47 0 2.8-.07 3.92 1.4-.63 2.2-1.3 2.2-2.23zM68.16 53a10.92 10.92 0 0 1 .29-1.25 5.79 5.79 0 0 1-1.4.14zm32.73 100.6A69.76 69.76 0 0 0 108 14.47c0 .13 0 .27-.08.4l-.37 1.83a67.35 67.35 0 0 1 40.63 19l-7.7 7.7.3-1.36-1-.44-1.38-.08.3-.9-.93-3.15-1.92-2.1-6-3.17-.52.55-1.1.32a18 18 0 0 1 3.18 10.11v1.37l3 3.75-1.4.32.93 1.4-2.63 2.62-1.06-2a17.92 17.92 0 0 1-2 3.93l.6.54-8.1 8.1c-.5-.47-1-.92-1.52-1.35a38.5 38.5 0 0 1-2.38 1l.7.54-.4.4-1 .53-.35 1-.6-.6-1.7.57.47.75 1.18-.3.77.06.06-.42.6-.3.18-.35 1.06-.3h.83c.16.14.33.3.48.44L115.8 68l-.24-.34-3.36.55-.75.75-.73.1 2.08-2-.74-.37-1.95 2.6.57-.06v1l.7.28.14 1-1.17-.23-1.22.22-3-1.5-.24 11.9c7 2.34 14.35 5.72 14.35 14.6a11 11 0 0 1-5 9.38h0l-.15.1-.22.15c-2.82 1.86-6.44 2.86-9.58 3.84l-.1 6.22c5 2.48 11.05 6.1 10.5 16.42-.07 2.54-1.06 3.24-1.9 3.47h0a52.52 52.52 0 0 1-9 1.43v2.27a55.87 55.87 0 0 0 34.78-15.36l8.1 8.1a67.37 67.37 0 0 1-93.3.19l8.1-8.1a55.83 55.83 0 0 0 34.29 15.15v-2.27A53.59 53.59 0 0 1 64.05 123l2.16-2.17 3 .34 1.58-1.7 4.14.14.6-1.43-.15-.6a42 42 0 0 0 21.1 8.42v-2.28a39.93 39.93 0 0 1-22.72-10.42l8.1-8.1a28.85 28.85 0 0 0 6.57 4.41 7.67 7.67 0 0 1 .82-2.13 26.22 26.22 0 0 1-5.79-3.89l8.13-8.12a14.86 14.86 0 0 0 4.34 2.41v-2.44a12.47 12.47 0 0 1-2.68-1.59l2.3-2.3a56.61 56.61 0 0 1-2.42-.78L91.6 92.3a12.4 12.4 0 0 1-1.94-2.89 27.57 27.57 0 0 1-4-2.14 15.69 15.69 0 0 1-7.59-13.78A16.54 16.54 0 0 1 81.34 63l-8.08-8.08A39.91 39.91 0 0 1 94.9 44.28c0-.78 0-1.55-.05-2.28a42.18 42.18 0 0 0-23.19 11.34L70.3 52a64.58 64.58 0 0 0-1.1 2.1l.86.87a42.13 42.13 0 0 0-11.46 28.2H47.13A53.62 53.62 0 0 1 62 46.83l3.64 3.65a4.61 4.61 0 0 0 .52 0 5.5 5.5 0 0 0 2.07-.6l-4.63-4.63a54.51 54.51 0 0 1 8-6.38 15.06 15.06 0 0 1 .57-1.68 26.93 26.93 0 0 1 1.75-2.35A56 56 0 0 0 62 43.63l-8.1-8.1A67.2 67.2 0 0 1 94 16.73l-.1-.5-.33-1.74a69.77 69.77 0 0 0 7.28 139.15zm15.1-48.15v-.06zm33.78-68.12a67.26 67.26 0 0 1 18.65 45.84h-11.5a55.67 55.67 0 0 0-6-24.48l.1-.2.8.42.2-.6-2-3.6-2.43-3.36-2.9-2.35c-1-1.22-2-2.4-3.07-3.54zM135.13 52l2.75.12.66.8-.33 1.17 3.8 2.4.75-.1 4.9 5.6 2-.7a53.4 53.4 0 0 1 5 21.88H143.2a41.78 41.78 0 0 0-1.07-8.72l.53-.7.7-3.6-.54-3.86-1.38-4.44-3.2-4.68.78.4.4-.4-2.57-1.74-.17.57 2.57 3.67 1.45 3 1 3 .33 2 .53 3.38-1 .07s-1.1-2.07-1.45-2.92l.5-.77-1-1.4v-1.4l-.7-.88-.87.1a24.57 24.57 0 0 0-1-1.71l.62.3.16-.16-.33-.72.75-.42-.34-.42-1.1.42.4-1.74-.66-.38-.6 1.4a42.64 42.64 0 0 0-4.17-5.3zm-2.3 26.87l2.06-1.12 2.1-.32.46-1 1.17-.7.45-1 .36-1.7a39.59 39.59 0 0 1 .46 1.8l-1.1 3.3v1.12l1.6-2.15a38.74 38.74 0 0 1 .57 6h-10l-.23-.87 1.17-.93.23-.56.5-.38 1.36-.14.14-.6zM119.07 71l1-.24v-.24l-1-.7.35-2.16 1.23-1.23a27.16 27.16 0 0 1 2.13 2.77l-.43 1.33-1.12-.8-.85.23.42.8h.42l-.47 1.17-.32-.47zm4.4 38.07l-2.48-.7-.74.27-1.4-1.07-1.32-.47c.65-.47 1.28-1 1.9-1.48l2 1.44 1.56.82.77.77zm-1.26-44.22l8.1-8.1a40.43 40.43 0 0 1 5 6.74l-1 .28.05 1.8 3 1.92a39.2 39.2 0 0 1 1.9 5.12l-.53.78-1.1.7-.27 1.68-.75.42-.63.74-.63-.23h-1.12l.65-.88.47-2.3.74-.46-2.1-2.15-1.63.55L132 73l-1 1.1-1.07-.88-.38-.94.6-.38.34.62.5-.2-.22-1h-.7l-.05.42-.47.1-2.55-3-.86-.65.33-.36.76-.26-.7-.28s-.9.2-1 .2l.5.64h-1.28a27.71 27.71 0 0 0-2.56-3.3zm4.13 43.15l-1.1-1.1.84-1.1 1.06-2.16-.4-.6.7-1.6-.08-1.44-.42-1.5-1-.35-.37.84-.6-.16a27.18 27.18 0 0 0 2.4-4.19l1-.44.58-.78.28.32.7-.84-.56-.7.5-.14.94.38h1.77l1.07-.56 2.8-.74-.53-.93-.18-1.13 1.5.66.56-.33-.28-1.16-1.8.73-2-.42-1.54-3.15h8.77a39.92 39.92 0 0 1-11.07 26.08l-1.2-1.2.52-1.6-.94-3.55zm1.55 22.37l1.08-2.32-.42-1 1.6-1.4v-.84l-1.36-.85 1.12-2.23 1.68-2.2-1.68-1.8h-1.26l-.78-1.27c.67-.56 1.34-1.13 2-1.73l8.1 8.1a54.38 54.38 0 0 1-10.08 7.55zm10.12-10.7l.9-1-.85-4.44-.58-.23.36-.75-1.92-.6-.37 1.58-.2 2-.4.37-3.5-3.5a42.17 42.17 0 0 0 11.74-27.67h11.47a53.55 53.55 0 0 1-15.1 35.78zm3.16 3.15a55.84 55.84 0 0 0 15.77-37.38h11.46a67.28 67.28 0 0 1-19.12 45.49zm-69-11.1a43.35 43.35 0 0 1-2.38-2.68l.35-2.9-1.2-2.78-.3-4.35-1.36-2.64.28-1.64-1.64-3.15-1.43-.72.58-1.67-.6-1.32.6-1.5h1.57l.55-.9h2.68l.4.8-.5 2.77-.32.47 1 2.2-.66.36-.46-.58-.2.22.46 1.3.8 1.52h.37L71 93l-.38-.5v-.92l-.12-1.9.5-3.34-.54-.9h1.92a28.48 28.48 0 0 0 7.89 18.17zm-7.6-22.4L63.48 91h-1.86l-.15-.1a40.74 40.74 0 0 1-.58-5.45h3.45l-.83 2.76zm3.77-7.87l.2-2.28 1.36-.8 2.43.43.37.44a27 27 0 0 0-.37 3.94h-2.75zM80 90l.57-.3L82 90.84l-.65.53 1.7 1.12-.04-1.2.9-1.5.94 1 1 1.38-1.84.38.8 1.58 1.2-.64-.12-.5.9-.6.53-2.5a14.91 14.91 0 0 0 2.63 4l-8.1 8.1a26.21 26.21 0 0 1-7.1-15.22l1.66 1.77h1.56zm-8.34-33.46l8.1 8.1a28.91 28.91 0 0 0-4.3 6.19h-.56l-1.14.35h-.4l-1.2 1.13L73.7 72l1.38-.35-.24.53-1.2.74H73l-1.78 1.36-1.72-.14-2.5 4.64.5.93-1.35 1.5-.2 2h-5.08a39.92 39.92 0 0 1 10.8-26.67zM61.2 117.7l2.57 1.5.53.36-1.86 1.86q-1.3-1.35-2.52-2.8zm-2.57-32.25c0 1.1.14 2.22.26 3.3l-1.4.32-.3 1.42-2.92 3.72.07 5.1-3 1H49.7a53.48 53.48 0 0 1-2.56-14.89zm-11.33 14.8l-.67-.13-.63-.7-3.22-.28 1 1.35-3-.56.78-.72-.73-.72-2.15.94-.77 1.42.3 3.27 2.5 5.87 1.2 1.86.68.25-1.87-3.55-.4-1.8.42-.44-.26-1 1.13.15 1.73 2.62.43.17v-1.9l.7.4.15 1 1.82.48.76-.54.26.18v1.4l.8 1 1 .22 2.12 3.6 1.3.36.4-1.68a56.32 56.32 0 0 0 7.9 10.2l-8.1 8.1a67.32 67.32 0 0 1-19.42-45.61h11.47a55.83 55.83 0 0 0 2.42 14.82zm5-63.13l8.1 8.1a55.91 55.91 0 0 0-15.54 37.94H33.4a67.28 67.28 0 0 1 18.85-46.04zm83-4.18l-.7-1.12-1.5-.75-1.17.9 1.5.8 1.6 1.23zm-7 32.35v.88l2-.6.6-1.2-1.37-1.8.73-1.1 1.85 1.32.34-.27-.37-.26-.42-.8.76-.44-.74-1-1.74.88-.58 1.1-.35.95.77 1.3-.28.6zm-82.9 51.42l.15-.52-1-2.24-1.22-.45zm46.88-43.08c0 1.92 1.17 3.28 3.3 4.45v-.86l-1.34-1.34.7-1.3.58-.16c0-2.24-.1-4.75-.1-5.1h-.1c-1.98 1.1-3.05 2.42-3.05 4.3zm12.8 49.68c3.6 1.82 6.92 4.34 8.3 9.1.6-7.9-3.82-11.32-8.2-13.63 0 .01-.1 4.53-.1 4.52zM129 43.2c0-7.17-5.2-15.13-17.95-17.94a30.69 30.69 0 0 0-3.89-.45c0 1.08-.08 3.56-.08 3.56 0 .78-.08 3.65-.1 4.27a18 18 0 0 1 2.45.34c7.4 1.77 10.06 6 10.06 10.22 0 6.8-5.82 9.38-13 11.32l-2.37.62-6.6 1.65a90.58 90.58 0 0 0-2.35.67h0c-7.93 2.42-14.75 6.24-14.75 16S88.2 86.8 95.78 89.14q-.07-4.2-.16-8.42c-3.35-1.57-5.7-3.64-5.7-7.12s2.15-5.46 5.44-7c.73-.33 1.5-.63 2.34-.9 1.9-.64 4-1.2 6.25-1.73l2.37-.57C117 60.9 129 57.54 129 43.2zm-38.44 68.47c0 3.92 2.9 6 5.8 7.67l-.12-6.83c.06-1.2 1.23-1.94 2.18-2.4a47.05 47.05 0 0 1 4.59-1.75l2.4-.83c5.8-1.75 12.5-4 12.5-11s-5.75-10-12-12.13c0 2.25-.1 5.54-.16 7.8 2.66 1 4.42 2.3 4.42 4.32 0 2.53-2.7 4-4.6 4.72-.8.3-2 .7-2.35.82-1.54.48-3.2 1-4.75 1.6a22.79 22.79 0 0 0-2.35 1c-2.76 1.38-5.57 3.4-5.56 7z"/><path d="M94.5 25.93a46.17 46.17 0 0 0-7 2.85c-2.5.83-6 1-9.67 4.94A49.49 49.49 0 0 0 74.49 38c-1.1 1.58-1.15 4.12-2 5.5-1.16 2-.88 3.1-.88 3.1v.06a5.31 5.31 0 0 1-1.34 2.48A5.08 5.08 0 0 1 65.61 51c1.66.83 4-.33 4-.33a30.61 30.61 0 0 0-.88 3.3c1.86-4.2 3.57-5.75 4.1-6.18.8.18 2.46.1 5.54-1.66 3.48-2 8.7-5.25 10.2-7.3a13.59 13.59 0 0 1 6.16-4.65l-.23-8.24zM79.8 39.08l-1.8.4L80.16 36l2.52.08zm21.88 72.1l-1.76.68c-.55.2-1.32.5-1.32.7s.56 30.4.56 31.08c0 6.25 3.18 6.3 3.18 0 0-.45.64-32.9.64-32.9l-1.3.43zm-3.3-10.02l2.9-.93 1.93-.6c0-1.9.58-28.33.68-33.13a60.72 60.72 0 0 0-6.15 1.77l.64 32.9zM101 0c-8.94 0-5.14 13.26-4.43 17.58 0 .2.72 30 .86 36.8l4-1 2.7-.68.8-35.15C105.53 12.9 110.2 0 101 0zm146.15 42.27H247l-7.57 41.34h-10.38l-9.7-50.45h8.26l6.75 38.9h.13l7.23-38.9h10.74l7.16 38.9h.14l7-38.9h8l-9.92 50.45H254.3zm42.28 3.53c7.22 0 15.56 4 15.56 19.15 0 15.62-8.34 19.23-15.56 19.23S273.8 80.58 273.8 65c0-15.2 8.4-19.2 15.63-19.2zm0 32c5.5 0 6.74-6.65 6.74-12.87s-1.24-12.8-6.74-12.8-6.82 6.58-6.82 12.8 1.3 12.9 6.82 12.9zm20.85-25.27a52.55 52.55 0 0 0-.27-6.14h7.7l.28 6.8h.13c1-2.9 3.72-7.37 9-7.37a8.15 8.15 0 0 1 1.45.22v8.38a8.4 8.4 0 0 0-2.41-.36c-3.5 0-7.37 2.24-7.37 9.18V83.6h-8.54zM334 29.4h8.54v54.2H334zm44.14 0v47.85a51.7 51.7 0 0 0 .27 6.36h-8a51.34 51.34 0 0 1-.28-5.78h-.2C368.55 81 366 84.2 360.5 84.2c-8.8 0-12.46-8.82-12.46-19.15 0-12.15 4.6-19.23 12.26-19.23a9.51 9.51 0 0 1 9.15 5.93h.14V29.4zm-15.3 48.22c5 0 6.75-5.72 6.75-12.73 0-7.23-1.93-12.5-6.6-12.5s-6.4 4.84-6.4 12.3c0 8.6 1.3 12.94 6.26 12.94zm43.42-44.46h8.82V53.7h14.24V33.16h8.82V83.6h-8.82V61.35h-14.24V83.6h-8.82zm64.58 48.64a25.48 25.48 0 0 1-10.6 2.38c-11.43 0-16.4-8.6-16.4-18.65 0-11.13 5.58-19.73 14.6-19.73 7.64 0 14.18 4.7 14.18 19.88v1.73H452.1c0 6.36 2.4 10.2 9 10.2 5.23 0 7.7-1.67 9.3-2.9zm-6.47-20c0-6.58-2.07-9.9-5.92-9.9-4.48 0-6.34 5-6.34 9.9zm15.9-13.24a23.72 23.72 0 0 1 11.22-2.75c11 0 13.56 5.64 13.56 15V77a47.23 47.23 0 0 0 .49 6.57h-7.72a19.44 19.44 0 0 1-.48-5h-.13c-2.14 3-4.83 5.63-9.92 5.63-5.5 0-10.6-4-10.6-10.9 0-10.12 7.85-12.65 18.66-12.65h1.72v-1.38c0-3.7-1.72-7.1-6.6-7.1a15.87 15.87 0 0 0-9.71 3.62zm16.8 16.84h-.76c-7.3 0-11.63 1.6-11.63 7 0 3.4 2.13 5.7 5.43 5.7 5.1 0 7-4 7-10.63zm16.38-36H522v54.2h-8.54zm19.2 9.33L541.2 36v10.4h7.1V53h-7.1v19.3c0 4 1.37 5.13 3.85 5.13a6.51 6.51 0 0 0 3.24-.8V83a12.66 12.66 0 0 1-5.72 1.23c-6.33 0-9.9-3-9.9-10.84V53H527v-6.6h5.64zm20.04-9.33h8.54v21.76h.2c1.5-2.32 3.5-5.35 8.8-5.35 8 0 10.46 6.3 10.46 13.8v24h-8.54V61.28c0-5.7-1.37-8.1-4.88-8.1-4.48 0-6.06 4-6.06 8.75V83.6h-8.54zM238.13 97c10 0 19.14 7.8 19.14 26s-9.15 25.94-19.14 25.94S219 141.14 219 123s9.15-26 19.13-26zm0 44.82c5.58 0 10.05-5 10.05-18.86s-4.47-18.87-10.05-18.87-10 5-10 18.87 4.43 18.9 10 18.9zM263 117.14a55 55 0 0 0-.27-6.15h7.7l.27 6.8h.14c1-2.9 3.72-7.37 9-7.37a8.9 8.9 0 0 1 1.44.21V119a8.27 8.27 0 0 0-2.4-.36c-3.52 0-7.37 2.24-7.37 9.18v20.38H263zM286.63 154a21.73 21.73 0 0 0 10.47 3.19c8 0 9.36-5.86 9.36-11.72v-3.54h-.14c-1.37 2.9-3.78 6.3-9.36 6.3-5 0-12.4-3.47-12.4-18.5 0-10.27 3.5-19.3 12.8-19.3 5.17 0 7.58 3.1 9.37 6.36h.26c0-2 .2-3.83.28-5.8H315c-.14 2-.28 3.9-.28 5.86v27.47c0 11.64-3.37 20-16.38 20a34.38 34.38 0 0 1-12.19-2.32zm13.28-12.36c5.37 0 7.5-4 7.5-12.5 0-7.8-2.82-12-6.88-11.93-4.48.08-6.2 4.4-6.2 12 0 8.8 2.67 12.43 5.58 12.43zm24.1-28.48a23.9 23.9 0 0 1 11.23-2.74c11 0 13.56 5.64 13.56 15v16.26a47.54 47.54 0 0 0 .48 6.58h-7.7a19.47 19.47 0 0 1-.48-5.06h-.14c-2.13 3-4.82 5.64-9.9 5.64-5.5 0-10.6-4-10.6-10.9 0-10.12 7.84-12.65 18.65-12.65h1.72v-1.38c0-3.68-1.72-7.08-6.6-7.08a15.9 15.9 0 0 0-9.7 3.61zM340.75 130H340c-7.3 0-11.64 1.6-11.64 7 0 3.4 2.14 5.7 5.44 5.7 5.1 0 6.95-4 6.95-10.63zm16.6-12.86a55 55 0 0 0-.27-6.15h8l.27 5.72h.14c1.24-2.25 3.65-6.3 9.43-6.3 8.05 0 10.46 6.3 10.46 13.8v24h-8.53v-22.3c0-5.7-1.38-8.1-4.9-8.1-4.48 0-6.06 4-6.06 8.75v21.68h-8.54zm35.72-21.98h8.8V104h-8.8zm.13 15.83h8.54v37.23h-8.54zm16.5 29.5l15.14-22.7h-14.66V111h23.2v7.67l-14.87 22.77h15.35v6.8h-24.16zm32.24-27.34a23.87 23.87 0 0 1 11.23-2.74c11 0 13.56 5.64 13.56 15v16.26a47.54 47.54 0 0 0 .48 6.58h-7.7a19 19 0 0 1-.48-5.06h-.14c-2.14 3-4.82 5.64-9.9 5.64-5.5 0-10.6-4-10.6-10.9 0-10.12 7.85-12.65 18.66-12.65h1.72v-1.38c0-3.68-1.72-7.08-6.6-7.08a15.9 15.9 0 0 0-9.7 3.61zm16.8 16.84H458c-7.3 0-11.63 1.6-11.63 7 0 3.4 2.13 5.7 5.44 5.7 5.1 0 7-4 7-10.63zm17.8-26.67l8.54-2.74V111h7.1v6.58h-7.1v19.3c0 4 1.38 5.13 3.86 5.13a6.48 6.48 0 0 0 3.23-.79v6.36a12.62 12.62 0 0 1-5.71 1.23c-6.34 0-9.92-3-9.92-10.84v-20.4h-5.64V111h5.64zM498 95.16h8.8V104H498zm1.1 15.84h8.54v37.23h-8.54zm30.7-.58c7.23 0 15.55 4 15.55 19.15 0 15.62-8.32 19.23-15.55 19.23s-15.63-3.6-15.63-19.23c0-15.18 8.4-19.15 15.63-19.15zm0 32c5.5 0 6.74-6.65 6.74-12.87s-1.24-12.8-6.74-12.8-6.8 6.6-6.8 12.8 1.3 12.87 6.8 12.87zm23-25.28a52.51 52.51 0 0 0-.28-6.15h8l.28 5.72h.14c1.23-2.25 3.64-6.3 9.42-6.3 8.06 0 10.47 6.3 10.47 13.8v24h-8.53v-22.3c0-5.7-1.38-8.1-4.9-8.1-4.47 0-6 4-6 8.75v21.68h-8.6z"/></svg>