<svg viewBox="0 0 3000 865" fill="none" xmlns="http://www.w3.org/2000/svg">
<g clip-path="url(#clip0)">
<rect width="3000" height="865" fill="#B754BE"/>
<path d="M4040 475C4040 831.855 3853.08 1145.05 3571.8 1322.02C3561.46 1328.54 3534.51 1318.39 3523.91 1324.53C3394.09 1399.71 3274.35 1436.5 3116.05 1446.49C3103.28 1447.3 3078.34 1474.36 3065.44 1474.68C3056.98 1474.89 3048.5 1475 3040 1475C3036.38 1475 3032.75 1474.98 3029.14 1474.94C3018.85 1474.83 2973.66 1398.37 2963.45 1397.95C2810.9 1391.71 2717.92 1359.38 2590.45 1292.23C2572.85 1282.96 2539.73 1341.29 2522.78 1331.02C2233.4 1155.8 2040 837.984 2040 475C2040 -77.2851 2487.71 -525 3040 -525C3592.29 -525 4040 -77.2851 4040 475Z" fill="#0A4499" fill-opacity="0.3"/>
<path d="M3807.7 475C3807.7 898.992 3463.99 1242.7 3040 1242.7C2616.01 1242.7 2272.3 898.992 2272.3 475C2272.3 51.0078 2616.01 -292.703 3040 -292.703C3463.99 -292.703 3807.7 51.0078 3807.7 475Z" fill="#0956C6" fill-opacity="0.3"/>
<path d="M2951.43 891.883L3029.13 1474.94C2843.93 1472.97 2670.79 1420.65 2522.77 1331.02L2490.98 894.668C2469.06 877.601 2444.15 854.886 2415.65 825.41C2364.86 772.883 2306.3 711.226 2256.11 653.273C2221.24 613.012 2180.18 578.816 2134.03 556.711C2126.03 552.875 2119.7 547.219 2116.23 539.477C2095.81 493.906 2117.45 467.398 2146.29 454.203C2152.27 451.461 2158.74 450.426 2165.41 450.906C2216.66 450.418 2331.67 507.68 2434.21 583.168C2419.68 552.23 2404.78 510.016 2389.45 453.258C2338.82 265.945 2302.57 -8.80865 2346.17 -20.9649C2389.76 -33.1212 2496.69 221.926 2547.32 409.238C2549.1 415.836 2550.79 422.262 2552.39 428.519L2574.88 426.32C2567.7 387.344 2561.48 342.547 2556.54 292.051C2535.25 74.1171 2546.05 -167.441 2588.09 -171.547C2630.13 -175.656 2687.49 59.2421 2708.79 277.176C2713.72 327.672 2716.29 372.828 2716.79 412.457L2743.27 409.871C2743.38 404.129 2743.54 398.246 2743.73 392.215C2750.01 198.234 2794 -74.7423 2837.3 -73.0704C2880.6 -71.3985 2906.82 204.293 2900.54 398.273C2899.98 415.664 2899.18 431.808 2898.15 446.789C2941.57 322.141 2993.4 219.277 3026.36 226.773C3077.93 238.5 3063.83 515.746 3024.31 705.066C3002.66 808.723 2977.89 864.527 2951.43 891.883Z" fill="#FFCDBE"/>
<path d="M2845.19 621.39C2835.65 627.726 2825.31 629.812 2814.56 629.394C2771.26 627.722 2737.46 586.191 2743.74 392.207C2750.01 198.222 2794 -74.7503 2837.3 -73.0785C2847.26 -72.6917 2856.33 -57.7933 2864.3 -32.7191C2832.65 50.1637 2805.9 244.183 2801.12 392.203C2796.21 543.738 2815.76 602.242 2845.19 621.39ZM2611.91 245.933C2597.37 97.0856 2597.8 -62.7816 2612.92 -150.489C2604.33 -164.739 2595.95 -172.317 2588.09 -171.547C2546.05 -167.438 2535.25 74.1168 2556.54 292.05C2564.53 373.777 2575.89 440.574 2589.2 491.929C2611.37 577.523 2670.3 527.988 2655.7 483.91C2637.63 429.328 2622.05 349.652 2611.91 245.933ZM2589.58 948.492C2585.8 896.695 2562.64 848.344 2525.01 812.554C2512.92 801.054 2500.26 788.48 2486.99 774.758C2422.01 707.554 2359.49 655.191 2288.84 584.539C2250.78 546.48 2109.17 492.636 2108.41 501.347C2107.46 512.226 2109.69 524.875 2116.24 539.48C2119.71 547.222 2126.03 552.879 2134.03 556.715C2180.18 578.82 2221.24 613.015 2256.11 653.277C2306.3 711.23 2364.86 772.886 2415.65 825.414C2444.15 854.89 2469.06 877.605 2490.98 894.672L2522.78 1331.03C2554.49 1350.23 2587.36 1367.72 2621.26 1383.37L2589.58 948.492ZM2434.71 390.32C2399.8 261.156 2371.73 90.4138 2371.96 -7.13312C2362.03 -17.8519 2353.26 -22.9456 2346.17 -20.9691C2302.58 -8.81284 2338.83 265.941 2389.46 453.254C2405.28 511.789 2420.63 554.859 2435.59 586.039C2468.5 654.64 2523.4 594.468 2496.34 551.519C2476.52 520.062 2456.04 469.254 2434.71 390.32ZM2767.19 924.375C2780.62 791.781 2683.68 672.976 2551.08 659.543C2540.36 658.457 2530.77 666.273 2529.69 677.004C2528.6 687.734 2536.42 697.316 2547.15 698.402C2658.31 709.668 2739.59 809.269 2728.33 920.433C2727.24 931.164 2735.06 940.746 2745.79 941.832C2747.1 941.965 2748.41 941.964 2749.68 941.839C2758.75 940.961 2766.24 933.789 2767.19 924.375Z" fill="#FAA68E"/>
<path d="M3369.91 -81.7851C3321.47 13.336 3228.14 106.207 3165.1 111.484C3163.33 111.645 3161.52 111.723 3159.68 111.719C3157.85 111.723 3156.04 111.645 3154.26 111.484C3091.22 106.211 2997.89 13.336 2949.46 -81.7851C2895.57 -187.602 2917.65 -256.125 2979.15 -273.371C3029.94 -287.613 3091.73 -262.422 3142.07 -193.609C3150.46 -182.137 3168.92 -182.137 3177.3 -193.609C3227.64 -262.422 3289.42 -287.613 3340.22 -273.371C3401.71 -256.129 3423.79 -187.602 3369.91 -81.7851Z" fill="#FF94D2"/>
<path d="M3241.56 75.6289C3214.49 96.2969 3187.83 109.582 3165.1 111.48C3163.33 111.641 3161.52 111.719 3159.68 111.715C3157.85 111.719 3156.04 111.641 3154.26 111.48C3091.22 106.207 2997.89 13.3321 2949.46 -81.789C2895.57 -187.605 2917.65 -256.129 2979.15 -273.375C2980.82 -273.844 2982.5 -274.27 2984.19 -274.652C2984.58 -240.258 2995.89 -198.348 3020.57 -149.863C3072.63 -47.6328 3168.21 52.4141 3241.56 75.6289Z" fill="#FF72C3" fill-opacity="0.3"/>
<path d="M3115.94 429.031C3048.04 562.367 2917.22 692.551 2828.85 699.946C2826.36 700.172 2823.83 700.281 2821.25 700.278C2818.68 700.281 2816.15 700.172 2813.66 699.946C2725.29 692.551 2594.46 562.367 2526.56 429.031C2451.04 280.703 2481.98 184.649 2568.19 160.477C2639.38 140.512 2726 175.824 2796.55 272.281C2808.31 288.36 2834.19 288.36 2845.95 272.281C2916.5 175.824 3003.12 140.516 3074.31 160.477C3160.52 184.649 3191.47 280.707 3115.94 429.031ZM2848.53 -338.551C2819.75 -282.019 2764.28 -226.828 2726.82 -223.695C2725.76 -223.601 2724.69 -223.555 2723.6 -223.555C2722.51 -223.551 2721.44 -223.597 2720.38 -223.695C2682.92 -226.828 2627.45 -282.023 2598.67 -338.551C2566.64 -401.437 2579.76 -442.16 2616.31 -452.41C2646.5 -460.875 2683.22 -445.902 2713.13 -405.008C2718.11 -398.191 2729.09 -398.191 2734.07 -405.008C2763.98 -445.902 2800.7 -460.871 2830.89 -452.41C2867.43 -442.16 2880.55 -401.437 2848.53 -338.551Z" fill="#FB5858"/>
<path d="M2936.02 649.691C2898.07 678.664 2860.7 697.281 2828.85 699.949C2826.36 700.176 2823.83 700.285 2821.25 700.281C2818.68 700.285 2816.15 700.176 2813.66 699.949C2725.29 692.555 2594.46 562.371 2526.56 429.035C2451.04 280.707 2481.98 184.652 2568.19 160.481C2570.53 159.824 2572.89 159.23 2575.26 158.691C2575.81 206.902 2591.65 265.652 2626.26 333.613C2699.22 476.906 2833.2 617.148 2936.02 649.691ZM2772.25 -245C2756.16 -232.719 2740.32 -224.824 2726.81 -223.691C2725.76 -223.598 2724.69 -223.551 2723.6 -223.551C2722.51 -223.547 2721.43 -223.594 2720.38 -223.691C2682.91 -226.824 2627.45 -282.02 2598.66 -338.547C2566.64 -401.434 2579.76 -442.156 2616.31 -452.406C2617.3 -452.684 2618.3 -452.938 2619.31 -453.164C2619.54 -432.727 2626.26 -407.816 2640.93 -379.004C2671.86 -318.254 2728.66 -258.797 2772.25 -245Z" fill="#F44545"/>
<path d="M1144.08 179.695H1158.42V153.68H1177.27V179.695H1190.06V197.695H1177.27V217.734L1189.22 215.133C1188.94 223.008 1188.98 229.477 1189.36 234.539L1177.27 236.789V272.93C1177.27 278.039 1176.28 282.023 1174.31 284.883C1172.39 287.742 1169.3 289.477 1165.03 290.086C1160.77 290.742 1154.39 291.07 1145.91 291.07C1145.06 283.852 1143.94 277.57 1142.53 272.227C1145.81 272.508 1149.42 272.648 1153.36 272.648C1156.73 272.648 1158.42 270.398 1158.42 265.898V240.867L1144.5 244.242L1142.11 224.133L1158.42 221.391V197.695H1144.08V179.695ZM1196.81 158.461H1270.78V197.414H1196.81V158.461ZM1251.94 182.789V173.086H1215.66V182.789H1251.94ZM1211.16 291.211H1192.31V203.883H1275.28V272.508C1275.28 277.805 1274.27 281.906 1272.26 284.812C1270.24 287.766 1267.34 289.547 1263.54 290.156C1259.74 290.766 1250.02 291.023 1234.36 290.93L1229.3 273.914C1236.52 274.242 1242.16 274.406 1246.24 274.406C1249.24 274.406 1251.3 274.289 1252.43 274.055C1253.55 273.867 1254.49 273.141 1255.24 271.875C1256.04 270.562 1256.44 268.758 1256.44 266.461V263.93H1211.16V291.211ZM1256.44 218.508H1211.16V227.086H1256.44V218.508ZM1211.16 249.727H1256.44V241.289H1211.16V249.727ZM1353.61 201.773H1289.48V186.867H1314.09V177.727H1286.67V162.539H1314.09V152.555H1332.66V162.539H1359.23V177.727H1332.66V186.867H1353.61V201.773ZM1423.36 172.383V188.695L1417.17 215.836L1400.58 212.32L1405.78 189.68H1378.92C1375.92 199.148 1372.88 207.305 1369.78 214.148C1363.88 211.055 1358.62 208.523 1354.03 206.555C1360.88 191.836 1366.41 173.93 1370.62 152.836L1387.92 155.93C1386.56 161.695 1385.2 167.18 1383.84 172.383H1423.36ZM1378.64 202.195H1395.66C1395.56 208.336 1395.35 213.938 1395.02 219C1398.49 244.781 1408.92 262.852 1426.31 273.211C1423.59 277.43 1420.03 283.711 1415.62 292.055C1402.27 281.695 1392.89 268.031 1387.5 251.062C1383.19 265.922 1373.77 279.961 1359.23 293.18C1355.11 287.555 1350.98 282.211 1346.86 277.148C1358.86 267.539 1367.16 257.109 1371.75 245.859C1376.34 234.609 1378.64 220.055 1378.64 202.195ZM1353.33 223.711H1291.03V208.805H1353.33V223.711ZM1294.55 248.18L1310.72 252.68C1308.66 260.32 1306.55 267.516 1304.39 274.266C1310.39 274.547 1313.91 274.148 1314.94 273.07C1315.97 272.039 1316.48 270.68 1316.48 268.992V246.07H1286.67V230.883H1359.8V246.07H1334.77V274.898C1334.77 279.258 1333.9 282.727 1332.16 285.305C1330.48 287.93 1328.04 289.641 1324.85 290.438C1321.66 291.234 1314.42 291.633 1303.12 291.633C1302.47 288.633 1301.81 285.891 1301.16 283.406L1285.55 277.852C1288.83 269.695 1291.83 259.805 1294.55 248.18ZM1347.28 246.914C1352.16 252.258 1356.42 257.367 1360.08 262.242L1347.42 272.086C1343.95 267.117 1339.83 261.773 1335.05 256.055L1347.28 246.914ZM1432.22 211.898H1568.06V232.711H1432.22V211.898ZM1601.11 153.961L1620.94 159.445C1617.61 170.32 1613.81 180.773 1609.55 190.805V290.93H1590.42V227.719C1587.19 232.922 1583.81 237.961 1580.3 242.836C1579.17 237.023 1577.16 228.539 1574.25 217.383C1585.69 198.82 1594.64 177.68 1601.11 153.961ZM1684.5 156.352C1690.69 175.195 1700.48 190.477 1713.89 202.195L1705.59 223.57C1703.62 221.789 1701.73 219.961 1699.9 218.086L1697.93 266.812C1697.6 273.328 1695.96 278.367 1693.01 281.93C1690.05 285.492 1686.52 287.602 1682.39 288.258C1678.27 288.914 1669.97 289.242 1657.5 289.242C1656 281.555 1654.41 274.805 1652.72 268.992C1658.91 269.461 1663.76 269.695 1667.27 269.695C1671.07 269.695 1673.86 269.016 1675.64 267.656C1677.42 266.297 1678.38 262.383 1678.52 255.914L1679.3 225.82H1657.71C1657.66 256.289 1647.05 278.273 1625.86 291.773C1622.86 287.93 1618.17 283.008 1611.8 277.008C1629 266.977 1637.6 249.914 1637.6 225.82H1628.81V217.523C1626.47 220.102 1624.03 222.586 1621.5 224.977C1619.25 219.258 1616.34 212.555 1612.78 204.867C1625.91 192.773 1635.52 176.508 1641.61 156.07L1659.89 160.852C1655.02 178.477 1647.23 194.273 1636.55 208.242H1691.11C1679.58 194.086 1671.47 178.289 1666.78 160.852L1684.5 156.352ZM1722.75 158.742C1755.56 158.93 1797.38 158.086 1848.19 156.211L1852.55 170.977L1833 171.469L1843.12 177.445C1840.45 180.539 1837.55 183.773 1834.41 187.148H1852.12V209.367H1832.72V201.914H1744.27V209.367H1724.86V187.148H1742.93C1741.05 183.867 1739.3 181.055 1737.66 178.711L1751.02 173.086L1727.39 173.508C1726.36 169.477 1724.81 164.555 1722.75 158.742ZM1794.68 172.242C1797.54 176.977 1800.33 181.945 1803.05 187.148H1813.59C1817.39 182.461 1821.16 177.281 1824.91 171.609L1794.68 172.242ZM1754.74 173.016C1757.51 177.141 1760.53 181.852 1763.81 187.148H1782.59C1780.9 183.82 1779 180.398 1776.89 176.883L1789.97 172.312L1754.74 173.016ZM1721.06 212.883H1759.24C1760.18 210.258 1761.05 207.586 1761.84 204.867H1780.83C1780.12 207.586 1779.38 210.258 1778.58 212.883H1856.34V227.648H1773.16C1772.13 230.086 1771.03 232.477 1769.86 234.82H1844.39V246.914C1836.23 254.648 1827.02 261.516 1816.76 267.516C1828.99 270.516 1842.66 272.227 1857.75 272.648C1854.28 278.836 1851.19 284.883 1848.47 290.789C1828.31 288.961 1810.43 284.789 1794.82 278.273C1780.2 284.367 1763.86 289.102 1745.81 292.477C1742.95 287.32 1739.88 282.398 1736.6 277.711C1733.79 280.242 1730.86 282.68 1727.81 285.023C1724.72 278.836 1721.44 273.352 1717.97 268.57C1733.02 257.508 1744.66 243.867 1752.91 227.648H1721.06V212.883ZM1795.1 260.133C1803.73 256.289 1811.3 251.93 1817.81 247.055H1773.52C1779.84 252.211 1787.04 256.57 1795.1 260.133ZM1757.91 254.578C1752.28 262.219 1745.84 269.344 1738.57 275.953C1751.84 273.797 1763.88 271.055 1774.71 267.727C1768.66 263.836 1763.06 259.453 1757.91 254.578Z" fill="#FEFEFE"/>
<path d="M1382.81 395.266H1473.38V409.141H1382.81V395.266ZM1571.25 390.578C1568.62 393.828 1565.62 397.828 1562.25 402.578C1559.94 400.766 1557.7 398.891 1555.55 396.953C1554.7 416.922 1554.05 428.984 1553.58 433.141C1553.11 437.297 1551.56 440.5 1548.94 442.75C1546.31 445.031 1542.64 446.172 1537.92 446.172C1531.48 446.172 1525.41 446.078 1519.69 445.891C1519.12 440.703 1518.47 435.984 1517.72 431.734C1525.84 432.422 1531.72 432.766 1535.34 432.766C1537.5 432.766 1538.86 431.812 1539.42 429.906C1540.02 427.969 1540.5 420.109 1540.88 406.328H1517.72C1517.19 415.109 1515.92 421.844 1513.92 426.531C1511.95 431.219 1508.84 435.453 1504.59 439.234C1500.38 443.016 1495.06 446.297 1488.66 449.078C1484.78 443.891 1481.53 439.922 1478.91 437.172C1484.47 434.953 1489.05 432.5 1492.64 429.812C1496.27 427.094 1498.86 424.219 1500.42 421.188C1502.02 418.125 1503.08 413.172 1503.61 406.328H1490.25V398.875C1488.69 400.062 1487.09 401.203 1485.47 402.297C1482.59 398.234 1479.75 394.703 1476.94 391.703C1491.06 381.766 1501.72 369.953 1508.91 356.266L1521.47 361.703C1514.94 374.016 1506.73 384.578 1496.86 393.391H1551.7C1542.11 384.141 1534.19 373.828 1527.94 362.453L1539.56 356.453C1547.56 370.266 1558.12 381.641 1571.25 390.578ZM1631.53 419.453C1630.47 414.578 1629.41 410.266 1628.34 406.516C1631.91 406.797 1634.98 406.938 1637.58 406.938C1640.02 406.938 1641.61 406.734 1642.36 406.328C1643.11 405.891 1643.67 405.188 1644.05 404.219C1644.45 403.219 1644.73 401.016 1644.89 397.609L1645.41 385.141L1626 388.562V427.984H1612.88V390.906L1597.22 393.672V428.172C1597.22 431.734 1599.31 433.516 1603.5 433.516H1644.56C1647.56 433.516 1649.58 432.797 1650.61 431.359C1651.67 429.891 1652.78 425.266 1653.94 417.484C1657.5 418.984 1661.88 420.734 1667.06 422.734C1666.25 426.672 1665.36 430.375 1664.39 433.844C1663.45 437.281 1662.48 439.75 1661.48 441.25C1660.52 442.75 1658.86 443.953 1656.52 444.859C1654.2 445.797 1651.34 446.266 1647.94 446.266H1600.12C1589.44 446.266 1584.09 441.234 1584.09 431.172V395.969L1575.38 397.516L1573.5 385.516L1584.09 383.641V367.141H1597.22V381.297L1612.88 378.484V356.359H1626V376.141L1658.81 370.234L1657.69 401.266C1657.59 406.328 1656.75 410.297 1655.16 413.172C1653.56 416.016 1651.25 417.828 1648.22 418.609C1645.19 419.391 1639.62 419.672 1631.53 419.453ZM1680.56 358.984H1751.53V398.172H1680.56V358.984ZM1738.5 369.391H1693.59V374.453H1738.5V369.391ZM1738.5 387.766V382.703H1693.59V387.766H1738.5ZM1680.28 448.984C1677.03 446.484 1673.47 443.922 1669.59 441.297C1676.59 434.609 1681.95 425.328 1685.67 413.453H1669.78V402.672H1762.41V413.453H1723.31V419.172H1755.19V429.391H1723.31V435.344C1727.41 435.438 1732.44 435.484 1738.41 435.484C1745.22 435.484 1753.28 435.422 1762.59 435.297C1761.03 439.359 1759.81 443.047 1758.94 446.359C1754.38 446.453 1746.38 446.422 1734.94 446.266L1721.25 446.078C1706.88 446.078 1696.44 442.703 1689.94 435.953C1687.06 441.078 1683.84 445.422 1680.28 448.984ZM1710.66 434.312V413.453H1685.91L1697.72 417.859C1696.81 420.641 1695.84 423.281 1694.81 425.781C1698.88 430.062 1704.16 432.906 1710.66 434.312ZM1768.5 359.828C1790.38 359.953 1818.25 359.391 1852.12 358.141L1855.03 367.984L1842 368.312L1848.75 372.297C1846.97 374.359 1845.03 376.516 1842.94 378.766H1854.75V393.578H1841.81V388.609H1782.84V393.578H1769.91V378.766H1781.95C1780.7 376.578 1779.53 374.703 1778.44 373.141L1787.34 369.391L1771.59 369.672C1770.91 366.984 1769.88 363.703 1768.5 359.828ZM1816.45 368.828C1818.36 371.984 1820.22 375.297 1822.03 378.766H1829.06C1831.59 375.641 1834.11 372.188 1836.61 368.406L1816.45 368.828ZM1789.83 369.344C1791.67 372.094 1793.69 375.234 1795.88 378.766H1808.39C1807.27 376.547 1806 374.266 1804.59 371.922L1813.31 368.875L1789.83 369.344ZM1767.38 395.922H1792.83C1793.45 394.172 1794.03 392.391 1794.56 390.578H1807.22C1806.75 392.391 1806.25 394.172 1805.72 395.922H1857.56V405.766H1802.11C1801.42 407.391 1800.69 408.984 1799.91 410.547H1849.59V418.609C1844.16 423.766 1838.02 428.344 1831.17 432.344C1839.33 434.344 1848.44 435.484 1858.5 435.766C1856.19 439.891 1854.12 443.922 1852.31 447.859C1838.88 446.641 1826.95 443.859 1816.55 439.516C1806.8 443.578 1795.91 446.734 1783.88 448.984C1781.97 445.547 1779.92 442.266 1777.73 439.141C1775.86 440.828 1773.91 442.453 1771.88 444.016C1769.81 439.891 1767.62 436.234 1765.31 433.047C1775.34 425.672 1783.11 416.578 1788.61 405.766H1767.38V395.922ZM1816.73 427.422C1822.48 424.859 1827.53 421.953 1831.88 418.703H1802.34C1806.56 422.141 1811.36 425.047 1816.73 427.422ZM1791.94 423.719C1788.19 428.812 1783.89 433.562 1779.05 437.969C1787.89 436.531 1795.92 434.703 1803.14 432.484C1799.11 429.891 1795.38 426.969 1791.94 423.719Z" fill="white"/>
<rect x="1160" y="555" width="700" height="200" rx="100" fill="#903CB8"/>
<path d="M1330.38 641.453H1358.12V614.266H1371.44V622.141H1410.72V633.953H1371.44V641.453H1403.12V677.078H1330.38V641.453ZM1389.44 652.891H1344.06V665.641H1389.44V652.891ZM1401.25 679.141C1405.19 686.578 1408.81 694.078 1412.12 701.641L1400.41 706.234C1396.66 697.734 1393.19 690.266 1390 683.828L1401.25 679.141ZM1330.84 679.891L1342.38 684.766C1339.38 691.328 1335.5 698.922 1330.75 707.547L1319.78 701.734C1324.09 694.109 1327.78 686.828 1330.84 679.891ZM1379.69 680.547C1382.44 686.609 1385.19 693.172 1387.94 700.234L1375.66 703.984C1373.34 697.172 1370.84 690.578 1368.16 684.203L1379.69 680.547ZM1357.56 681.484C1360.5 689.234 1362.88 695.953 1364.69 701.641L1352.5 704.734C1349.94 696.422 1347.72 689.734 1345.84 684.672L1357.56 681.484ZM1486.75 706.328V701.641H1424.12V670.141H1437.44V689.266H1455.16V663.859H1416.06V651.297H1455.16V639.953H1421.5V627.391H1455.16V614.172H1468.84V627.391H1502.88V639.953H1468.84V651.297H1507.84V663.859H1468.84V689.266H1486.75V670.141H1500.06V706.328H1486.75ZM1552.84 650.828C1560.41 645.641 1569.12 639.391 1579 632.078H1514.88V619.047H1600.75V631.984L1567.66 656.641V686.922C1567.66 692.859 1566.12 697.281 1563.06 700.188C1560.03 703.125 1555.52 704.609 1549.52 704.641L1532.41 704.734C1531.53 700.109 1530.41 695.328 1529.03 690.391C1535 690.953 1539.98 691.234 1543.98 691.234C1547.67 691.234 1550.06 690.484 1551.16 688.984C1552.28 687.453 1552.84 685.484 1552.84 683.078V650.828ZM1653.81 679.703H1673.12V669.391H1664.31C1663.12 672.484 1661.78 675.297 1660.28 677.828C1656.97 675.984 1653.94 674.469 1651.19 673.281V693.297C1651.19 696.922 1650.56 699.734 1649.31 701.734C1648.06 703.766 1646.2 704.969 1643.73 705.344C1641.3 705.75 1638.53 705.953 1635.44 705.953L1634.27 700.047H1627.09V682.328H1621.52C1620.58 692.922 1618.69 701.297 1615.84 707.453C1612.78 703.641 1609.84 700.453 1607.03 697.891C1610.53 689.891 1612.28 678.203 1612.28 662.828V647.312C1611.69 647.906 1611.09 648.484 1610.5 649.047C1609.75 644.984 1608.66 640.641 1607.22 636.016C1613.66 629.453 1618.62 621.984 1622.12 613.609L1633.56 615.109C1632.78 616.984 1631.95 618.828 1631.08 620.641H1648.09V629.453L1643.31 637.984H1651.19V670.891C1654.91 664.828 1657.28 658.516 1658.31 651.953L1668.53 653.359C1668.19 655.328 1667.8 657.234 1667.36 659.078H1673.12V651.203H1684.94V659.078H1697.97V669.391H1684.94V679.703H1700.22V690.016H1684.94V706.328H1673.12V690.016H1653.81V679.703ZM1620.44 637.984H1631.45L1636 629.828H1626.06C1624.34 632.641 1622.47 635.359 1620.44 637.984ZM1641.44 646.984H1636.09V655.891H1641.44V646.984ZM1622.22 655.891H1627.09V646.984H1622.22V655.891ZM1636.09 673.516H1641.44V664.703H1636.09V673.516ZM1622.08 673.516H1627.09V664.703H1622.22C1622.22 665.141 1622.17 668.078 1622.08 673.516ZM1641.44 682.328H1636.09V695.219C1638.34 695.312 1639.8 695.016 1640.45 694.328C1641.11 693.641 1641.44 692.297 1641.44 690.297V682.328ZM1674.72 649.328C1674.12 645.453 1673.3 641.859 1672.23 638.547C1670.14 643.484 1665.97 647.891 1659.72 651.766C1657.28 648.391 1654.47 645.047 1651.28 641.734C1658.34 638.172 1662.12 633.516 1662.62 627.766H1653.91V617.547H1697.78C1697.62 630.797 1696.89 638.828 1695.58 641.641C1694.3 644.422 1692.5 646.406 1690.19 647.594C1687.91 648.75 1682.75 649.328 1674.72 649.328ZM1672.42 638.125C1675.55 638.281 1677.88 638.359 1679.41 638.359C1681.69 638.359 1683.2 637.797 1683.95 636.672C1684.73 635.547 1685.12 632.578 1685.12 627.766H1674.72C1674.34 631.734 1673.58 635.188 1672.42 638.125Z" fill="#F2D4FE"/>
<path d="M446 -242C753.623 -242 1003 -4.93498 1003 287.5C1003 409.124 959.865 521.169 887.344 610.565C883.972 614.721 858.313 615.128 854.814 619.184C805.206 676.732 765.32 709.714 694.65 743.286C689.246 745.853 683.791 766.493 678.286 768.896C607.584 799.781 528.908 817 446 817C138.377 817 -111 579.935 -111 287.5C-111 152.99 -58.2395 30.194 28.683 -63.2069C33.0215 -67.869 62.5838 -62.9959 67.0899 -67.5111C126.51 -127.02 181.205 -166.366 264.113 -194.606C268.709 -196.171 267.316 -214.191 271.966 -215.643C326.721 -232.746 385.224 -242 446 -242V-242Z" fill="#2476ED"/>
<path d="M478.637 -78.5996C691.328 -78.5996 863.75 85.3096 863.75 287.5C863.75 489.69 691.328 653.6 478.637 653.6C265.945 653.6 93.5234 489.69 93.5234 287.5C93.5234 85.3096 265.945 -78.5996 478.637 -78.5996Z" fill="#3493F8"/>
<path d="M241.645 251.649C241.645 257.36 236.775 261.991 230.766 261.991H212.633V279.226C212.633 284.937 207.763 289.568 201.754 289.568C195.744 289.568 190.875 284.937 190.875 279.226V261.991H172.744C166.735 261.991 161.865 257.36 161.865 251.649C161.865 245.938 166.735 241.307 172.744 241.307H190.875V224.072C190.875 218.361 195.744 213.73 201.754 213.73C207.763 213.73 212.633 218.361 212.633 224.072V241.307H230.766C236.775 241.307 241.645 245.936 241.645 251.649Z" fill="#A7D0FC"/>
<path d="M147.457 391.177C147.457 396.887 142.588 401.518 136.578 401.518H118.445V418.754C118.445 424.465 113.576 429.096 107.566 429.096C101.557 429.096 96.6874 424.465 96.6874 418.754V401.518H78.5566C72.5471 401.518 67.6777 396.887 67.6777 391.177C67.6777 385.466 72.5471 380.835 78.5566 380.835H96.6874V363.599C96.6874 357.888 101.557 353.257 107.566 353.257C113.576 353.257 118.445 357.888 118.445 363.599V380.835H136.578C142.588 380.835 147.457 385.466 147.457 391.177Z" fill="white"/>
<path d="M853.433 146.961C840.948 170.267 816.892 193.023 800.644 194.316C800.187 194.355 799.721 194.374 799.247 194.374C798.775 194.374 798.309 194.355 797.85 194.316C781.601 193.023 757.544 170.267 745.061 146.961C731.173 121.034 736.863 104.243 752.716 100.018C765.807 96.5282 781.734 102.7 794.706 119.562C796.869 122.372 801.627 122.372 803.79 119.562C816.762 102.7 832.689 96.5282 845.78 100.018C861.631 104.243 867.321 121.034 853.433 146.961ZM51.6201 180.684C38.5284 177.194 22.6017 183.366 9.62969 200.228C7.46696 203.038 2.70853 203.038 0.545799 200.228C-12.4262 183.366 -28.3529 177.194 -41.4446 180.684C-57.2952 184.909 -62.987 201.7 -49.099 227.627C-36.6144 250.933 -12.5589 273.689 3.6898 274.982C4.14672 275.021 4.61234 275.04 5.08666 275.04C5.5588 275.04 6.02442 275.021 6.48351 274.982C22.7322 273.689 46.7877 250.933 59.2723 227.627C73.1603 201.7 67.4707 184.909 51.6201 180.684Z" fill="#FF94D2"/>
<path d="M820.348 185.532C813.37 190.596 806.499 193.851 800.64 194.316C800.183 194.356 799.717 194.374 799.243 194.374C798.771 194.374 798.305 194.356 797.846 194.316C781.598 193.024 757.54 170.268 745.057 146.961C731.169 121.034 736.859 104.244 752.712 100.018C753.143 99.9041 753.576 99.7986 754.013 99.7056C754.113 108.132 757.026 118.401 763.391 130.282C776.806 155.33 801.441 179.844 820.348 185.532ZM-30.7717 210.948C-37.1359 199.067 -40.0471 188.798 -40.1494 180.372C-40.5867 180.465 -41.0197 180.57 -41.4505 180.684C-57.301 184.91 -62.9929 201.701 -49.1049 227.627C-36.6202 250.934 -12.5648 273.69 3.68394 274.982C4.14085 275.022 4.60647 275.04 5.08079 275.04C5.55294 275.04 6.01855 275.022 6.47764 274.982C12.3348 274.517 19.206 271.262 26.1859 266.198C7.2805 260.51 -17.3537 235.996 -30.7717 210.948Z" fill="#FF72C3"/>
<path d="M583.708 2.22149C579.539 61.1449 553.558 139.755 524.796 159.249C523.345 160.612 521.776 161.998 520.079 163.409C492.882 186.006 443.542 206.127 430.119 191.528C416.699 176.93 444.282 133.14 471.477 110.546C471.901 110.194 472.321 109.849 472.741 109.511C467.354 90.739 463.55 68.9054 461.629 47.0573C448.289 44.8359 434.045 40.2731 420.037 33.3213C375.975 11.4567 350.947 -25.7407 364.137 -49.7626C377.326 -73.7845 504.1 -85.9568 528.151 -84.42C562.068 -82.2524 588.555 -66.3033 583.708 2.22149Z" fill="#FFBEAA"/>
<path d="M643.269 52.462C628.92 109.921 589.636 183.371 557.883 198.081C556.216 199.198 554.426 200.319 552.507 201.442C521.756 219.457 469.596 231.553 458.898 215.049C448.198 198.544 483.01 159.688 513.76 141.672C514.239 141.391 514.716 141.118 515.186 140.851C511.43 105.424 514.694 60.7251 523.508 25.4327C540.196 -41.3898 570.461 -49.1772 603.533 -41.7146C624.684 -36.9408 643.1 -28.6487 648.367 -4.68265C651.335 8.82581 649.283 28.378 643.269 52.462Z" fill="#FFDECF"/>
<path d="M599.667 248.921C570.779 302.851 515.116 355.508 477.516 358.499C476.457 358.59 475.38 358.635 474.285 358.633C473.191 358.635 472.114 358.59 471.054 358.499C433.455 355.508 377.792 302.851 348.904 248.921C316.767 188.928 329.935 150.076 366.615 140.299C396.906 132.224 433.759 146.506 463.776 185.52C468.781 192.023 479.79 192.023 484.794 185.52C514.811 146.506 551.665 132.224 581.958 140.299C618.635 150.074 631.803 188.926 599.667 248.921Z" fill="#FB5858"/>
<path d="M523.116 338.169C506.97 349.886 491.069 357.419 477.516 358.496C476.457 358.587 475.38 358.633 474.285 358.631C473.191 358.633 472.114 358.587 471.054 358.496C433.455 355.506 377.792 302.849 348.904 248.919C316.767 188.926 329.935 150.074 366.615 140.297C367.611 140.032 368.614 139.79 369.624 139.573C369.857 159.073 376.597 182.835 391.321 210.323C422.365 268.285 479.37 325.008 523.116 338.169Z" fill="#F44545"/>
<path d="M645.061 16.5925C624.182 54.6172 521.983 43.1295 416.795 -9.06557C407.813 -13.5229 399.099 -18.1332 390.688 -22.8595L356.445 39.5016C385.499 121.839 394.21 231.834 377.333 267.689C375.91 271.452 373.699 274.825 370.669 277.624C356.08 291.099 335.965 298.175 315.965 278.608C312.566 275.284 311.043 270.769 310.952 265.66C310.425 236.209 301.933 207.355 288.524 180.802C269.223 142.58 249.993 99.0765 233.838 61.5172L233.67 61.1284C223.751 38.0392 205.261 19.211 181.711 8.21973L28.6836 -63.2048C93.4 -132.745 177.052 -185.989 271.966 -215.641L279.418 -211.62C297.889 -201.657 318.456 -195.884 339.611 -194.122C381.983 -190.591 436.777 -174.373 492.408 -146.769C597.596 -94.5715 665.942 -21.4323 645.061 16.5925Z" fill="#FFDECF"/>
<path d="M361.132 284.879C347.906 292.874 331.9 294.195 315.967 278.608C312.569 275.284 311.046 270.769 310.954 265.66C310.428 236.209 301.933 207.353 288.524 180.798C269.223 142.576 249.993 99.0746 233.84 61.5152C233.784 61.3849 233.729 61.2567 233.673 61.1264C223.805 38.1428 205.529 19.3331 182.089 8.39357L28.6836 -63.2047C42.4454 -77.9914 57.0623 -92.0418 72.4625 -105.283L197.831 -46.7675C227.282 -33.0212 250.246 -9.39018 262.643 19.4882C262.713 19.6496 262.782 19.813 262.852 19.9764C283.148 67.166 307.31 121.824 331.559 169.846C348.408 203.21 359.078 239.464 359.74 276.469C359.794 279.458 360.24 282.288 361.132 284.879Z" fill="#FFBEAA"/>
<path d="M887.343 610.565C832.487 678.186 760.819 732.851 678.288 768.898L608.843 721.69C528.972 739.718 423.623 741.068 329.527 711.867C223.602 678.995 183.269 624.02 172.81 606.011C149.938 566.623 133.339 511.247 150.421 500.154C164.616 490.94 195.166 516.674 219.718 531.566C290.287 574.373 392.51 563.481 481.19 547.989C499.528 544.785 499.299 519.729 480.903 516.842C458.579 513.338 436.843 510.215 411.306 506.167C351.725 496.719 306.451 498.245 301.564 480.488C300.011 474.838 301.754 462.487 308.742 452.654C310.857 449.68 313.633 447.299 316.893 445.516C350.293 423.912 470.572 413.968 553.439 430.872C584.483 437.206 606.92 444.346 622.838 452.077C630.712 455.902 700.361 498.868 700.361 498.868L887.343 610.565Z" fill="#FFDECF"/>
<path d="M738.505 738.197C719.186 749.553 699.082 759.816 678.288 768.898L642.222 744.38C621.968 730.611 596.855 724.838 572.251 728.491C498.375 739.459 409.851 736.795 329.527 711.867C223.602 678.995 183.269 624.02 172.81 606.011C149.938 566.623 133.339 511.247 150.421 500.154C151.27 499.602 152.179 499.178 153.141 498.868C159.464 517.435 194.642 570.152 203.067 577.548C336.464 694.692 502.994 695.484 602.303 680.257C627.209 676.438 652.696 681.806 673.449 695.444L738.505 738.197Z" fill="#FFBEAA"/>
<path d="M301.094 474.054C301.475 467.838 303.792 459.614 308.742 452.652C310.856 449.678 313.633 447.297 316.892 445.514C321.344 442.635 327.338 439.963 334.581 437.535C347.292 438.023 357.357 443.351 359.148 451.548C361.498 462.303 348.711 473.925 330.589 477.504C319.04 479.785 308.113 478.25 301.094 474.054Z" fill="white"/>
<path d="M808.442 358.65C792.047 389.255 760.459 419.137 739.121 420.835C738.521 420.887 737.91 420.911 737.287 420.911C736.665 420.913 736.054 420.887 735.453 420.835C714.115 419.137 682.527 389.255 666.133 358.65C647.895 324.602 655.369 302.556 676.183 297.006C693.373 292.425 714.287 300.529 731.323 322.668C734.163 326.358 740.412 326.358 743.251 322.668C760.285 300.529 781.201 292.423 798.392 297.006C819.208 302.556 826.679 324.604 808.442 358.65Z" fill="#F44545"/>
<path d="M765 409.299C755.836 415.949 746.813 420.222 739.121 420.835C738.521 420.886 737.91 420.911 737.287 420.911C736.665 420.913 736.054 420.886 735.453 420.835C714.115 419.137 682.527 389.255 666.133 358.649C647.895 324.602 655.369 302.556 676.183 297.006C676.748 296.855 677.316 296.719 677.891 296.597C678.023 307.662 681.848 321.148 690.203 336.748C707.825 369.639 740.175 401.829 765 409.299Z" fill="#C42D2D"/>
</g>
<defs>
<clipPath id="clip0">
<rect width="3000" height="865" fill="white"/>
</clipPath>
</defs>
</svg>
