<svg xmlns="http://www.w3.org/2000/svg" viewBox="0 0 652 652"  xmlns:v="https://vecta.io/nano"><path d="M34 427.1c0 1.9-2.5 1.9-2.7 3.4-.3.1-.6.2-.8.2-5-1-7-3.4-7.7-8.3 0-.8.6-2.1-1.5-1.7-1 .2-.8-1.7-.2-1.9 2.5-.8 2.7-3.4 4.8-4.4 1.3-.6.2-.8-.4-1.3-4.4-2.5-4.6-5.2-.6-8.5 1.5-1 1.7-2.5 0-3.2-1-.2-1.7-1.2-1.5-2.2.1-.4.2-.7.5-1 .6-1 1.7-1.7 0-2.9-.4-.2 0-1 1-1.3 3.4-.8 3.4-2.7 1-5.2-1-1-2.9-3.2-.4-4.6.8-.4 1.2-1.3 1-2.1 0-2.9-1.3-5.7-.8-8.7.1-.5-.2-.9-.6-1-3.2-1.9-1.7-3.4.4-4.8-2.9-2.3-3.4-5.5-1.3-8.1l.2-.2c-1.5-3.6 1.7-6.8 1.7-10.4-.2-3.4-3.6-5.9-2.7-9.6.2-1-.4-2.1 1.3-2.7.8-.2 1-1 .4-1.9-.8-1.7-.4-2.9 2.1-3.6-2.7-1.5-3.1-3.1-1.3-5 .8-.6.8-1.8.2-2.5l-.2-.2c-2.3-2.1-2.3-4-.4-6.2.2-.2.6-.2.4-.6-1.7-4.8.6-9.8.8-14.8.2-4.2-3.8-7.2-2.7-11.2.2-.6-.4-.8-1-1-.8 0-1.3-.8-1-1 2.1-.8 1.5-3.4 3.2-4.2 3.2-1.5 3.6-2.9 1-5.2-1-1-2.3-1 .2-2.1 2.7-1.3 2.7-6.2.6-8.3-1.1-1-1.2-2.7-.2-3.8 1.2-1.8 1.6-2.6-.3-3.9-.2-.3-.5-.5-.8-.6 2.9-2.3-2.5-5 .6-8.1 2.3-2.1-.8-6.4 1.7-9.1 1-1-.6-1-1-1.7-.8-1.5-1.9-3.2 1.5-3.6.6 0 1.7.6 1.7-.8 0-1 .2-2.1-1-2.3-2.1-.2-1.5-1.5-1.5-2.3.2-1.5 1.7-1 2.5-1 3.4.2 6.6.2 7.2-3.8.2-1.3 1.5-.8 2.3-.8 11.9-.4 23.7-.8 35.6-.6 4.2 0 8.5-1.3 12.9-.2 1 .2 2.9-2.3 5.2-1.7 1.3.2 2.9-.6 3.8 1.5.6 1.3 4.4 1 5 .2 1.5-1.9 2.9-1 4.4-1h11.2c.6.2 1.2-.1 1.5-.6 1-1.3 2.7-1.5 3.6.2.4.9 1.4 1.3 2.2.9h.1c5-2.5 10.6-.6 15.9-1.3 2.3-.2 4.8.6 7-1.3 1-.4 2.2-.4 3.2.2 1.3 1 2.7 2.3 4-.2.4-.8 1.9-.2 2.5.6 1 1.5 2.1 1.7 3.4.2.6-.8 1.7-.4 2.3-.4H175c.8 0 1.9.8 2.1-.6.4-.7 1.2-1 1.9-.6 4.2 2.7 8.1-1.3 12.3-.2 4.4 1.3 9.3.8 14 .6 2.1 0 4.4.6 6.2-1.3a1.72 1.72 0 0 1 1.7 0c3.2 2.7 5.9-.8 9.3-.2 3.6.8 7.5.6 11.2.8 1.3 0 2.9.6 3.4-1.5.2-1 6.6-.4 7.7.6 1.8 1.5 4.5 1.5 6.4 0 .6-.8 1.5-.4 2.3-.4 3.4.2 6.6-.2 10 .4 1.7.4 4.2 1.3 6.2-1.3.8-1.3 4.2-.6 6.4-.2 1.5.3 3.1.5 4.6.4 9.6-.4 19.1 1 28.8.6 1.3 0 2.9.6 3.4-1.5.2-.8 1-.6 1.7 0 1.9 1.9 2.9 1.9 4.6.2.3-.3.7-.4 1-.2 2.9.6 6.4-1 8.5 2.1.3.3.7.4 1 .2 3.6-3.4 8.1-1 12.3-1.5 2.7-.2 6.8.8 8.7 0 2.5-1.3 3.6-.8 5.2.4.6.1 1.2.1 1.7-.2 1-1.9 1.9-2.9 2.7 0 .4.2.8.2 1.3.2 2.5-3.8 6.8-1.9 9.8-1.7 10.2.8 20.4.8 30.6 1.5 3.4.2 6.8.4 10.2.4 1.5 0 3.4.8 4.2-1.5.9-.8 2.2-.7 3 .2.1.1.2.3.3.5.6 1.5 2.3 1.5 3.6.6 2.5-1.9 3.4-1.9 5 .8 1.7-1 3.4-4.2 5.7-.2.8.9 2.2 1.1 3.2.4 2.7-1.7 5.5-2.5 8.1.4.5.4 1.2.4 1.7 0 3.6-2.3 9.1-2.5 12.3-.2 1 .6 1.5.2 2.3-.2 1.5-.8 3.8-1.7 4.2 1 .2 1.5 1.5 1 2.3 1h26.1c2.1-1.9 4.4-.6 6.8-.8.8 0 2.9.8 2.9-1.5 0-.6 2.1-.6 2.7-.2 2.4 1.4 5.4 1.1 7.7-.6.3-.4.9-.5 1.3-.1l.1.1c1 1 2.6 1.1 3.6.1.2-.2.4-.5.6-.8.2-.4 3.4-.8 3.6-.4.4 1 1.9 1 1.9 1.3 2.7 4.6 3.4 0 3.8-.8 1.3-2.9 4-1.9 5.7-1.3s3.4.8 4.4.2c4.8-3.2 10.6-2.5 15.9-2.7l33.5-2.7c.6 0 1.2-.1 1.7-.4.8-4.4 5.2-1.7 7.9-2.7 1.5-.6 3.2-1 4.6-1.7 4.4-1.5 9.6-1.3 14.4-1 1.3 0 .4 1.5.8 2.1.4.8 1.7-.8 1.9.4.4 1.5-1.7.8-1.9 1.5-.2 2.7-3.8 3.8-4.2 5.9s-.8 4.8 1 6.6 2.3 4.5 1 6.8c-.6 1.5-.2 2.7-.4 4-.4 2.7 1.7 5.5-.4 8.3-.4.6-2.3 4 1.9 4 .2.5.3 1 .2 1.5-.7 2.3-1.2 4.7-1.5 7.2-.6 3.6-1.3 4 1.3 7.2.4.6.4 1.4.2 2.1-1.7 1.5-.6 4.2-2.5 5.5 0 .1-.1.2-.2.2-1.7 1.9 2.5 2.3 1.5 4-1 1.5-1.3 2.9.8 4 .4.2.7.6.6 1-3.2 1.5.2 4.8-2.3 6.4-.2.2-.2.5-.2.8 3.6.6 1.3 3.4 2.3 5 .4.6.3 1.4-.3 1.9-.2.1-.4.2-.6.2-.7.3-1.1 1.1-.8 1.9.8 3.1 1.1 6.5.6 9.8-.2 1 1 2.7 1.5 4.4 1.3 4.2.2 8.1-.4 12.1-.2 2.6 0 5.1.8 7.7.2 1.5 1.3 2.7-1.3 3.4-.8.2-.4 1.3-.2 2.1 1 5.2 2.9 10.6 1.7 15.6-.8 3.6 1.5 7.9-2.1 11.2-.4.4-.6 2.9 1 3.6 1.5.4 1.3 1.3 1.5 2.1.8 1.9 0 4.1-1.9 5-1 .6-1.9 1 0 1.5.7.1 1.1.6 1.1 1.3v.2c.2 2.1-2.1 4.2.6 6.2.2.2.4 1.7-.6 1.7-3.4.2-2.7 2.1-2.5 4 .4 1.4 0 2.8-1 3.8-.8 1-.8 3.2.8 4.8 1.8 1.8 2.2 4.5 1 6.8-.6 1-1 2.2-1 3.4 0 3.4-1.7 6.8-.4 10.2.2.6-3.2 1.9-4 1.7-2.3-1-5.2-.2-5.7 1-.6 2.1-1.9 1.9-3.4 1.9-3.8-.1-7.7.1-11.4.6-4 .6-8.3-.8-12.5-.6-2.5.2-5 0-7 1.9-.6.7-1.6.8-2.3.3-.2-.1-.3-.3-.4-.5-.6-1-7.5-.8-8.5 0-2.9 2.3-3.6 2.1-8.3.6-1-.2-4.4-1-5.5 1.5-.3 1-1.2 1.5-2.2 1.3h-.1c-2 0-3.9.2-5.9.6-1.3.2-2.9.6-4.2-1.3s-4.4 0-6.6.4c-2.5.4-3.6.6-3.6-2.1 0-1.5-1.5-1.5-2.7-1.5h-38.1c-1 0-2.5-.4-2.3 1.3.2 2.3-1.5 2.1-3.2 1.9-16.7-.8-33.5-.6-50.2-1.9-1.5 0-3.6-1-4.6 1.5-.4.8-3.4 1-4.6-.2-2.3-2.3-4.4-1.9-7-.6-.4.3-.8.4-1.3.2-4.2-2.1-4.2-2.1-9.1.2-1.5.6-3.8 1-5-.6-.6-1.1-2.1-1.6-3.2-.9l-.1.1c-2.9 2.3-6.2.4-9.1 1-2.1.4-1-1.9-2.5-2.1-1.9-.2-2.9 1.3-4.6 1.3-6.6.2-13.3.2-20-.2-1.5 0-3.4.2-4.6-1.5-.8-1.3-1.7 1-2.9 1-4.4 0-8.9.4-13.1-.2-5.4-.7-10.9-.8-16.3-.2-2.3.2-5 1-7.7 1-1.5 0-2.9.4-3.8-1.3-.4-.8-1.9-.8-1.9-.2.2 3.2-2.5 1.5-3.4 1.5-4-.5-8.2-.6-12.3-.4-.8 0-1.7-.2-2.3.6-.8 1-1.5 1.3-1.9-.2-.4-.2-.8-.3-1.3-.2-4.2 2.5-8.7.4-13.1 1-.6.3-1.4-.1-1.6-.7 0-.1 0-.1-.1-.2-.2-1.5-2.1-1.3-2.5-1-3.2 2.1-6.6.8-10 1.3-1.3.2-2.9-.4-3.6 1.3-.2.3-.5.4-.8.4-5-2.9-10.2 1-15.2-.2a1.08 1.08 0 0 0-1.4.7c0 .1-.1.2-.1.3-.4 1.5-1.3.8-1.9.2-1.5-1.9-1.7-1.9-2.5-.2-.6 1.5-1.3.8-2.5.8-6.6-.6-13.3-1-19.5 0-4.3.9-8.9 1.2-13.3.8-5.2-.6-10.6-1-15.4-.2-4.2.7-8.6 1-12.9 1-2.1 0-4.4.4-6.6-.4-.8-.3-1.6-.2-2.3.2-3.2 3.2-7.2 1-10.8 1.5-2.1.2-4.2-1.3-6.2.6-.5.4-1.2.4-1.6-.1l-.1-.1c-.8-1.3-1.7-1.5-2.5 0-.4.3-.8.4-1.3.2-4-1.7-8.3.8-12.3 0-3.8-.8-7.2-2.3-11.4-1.7-9.3 1.5-18.3 2.7-27.3 2.7-5.2 3.6-11.7 2.1-17.3 2.9-5.9.8-12.1.6-18.3 1-1.7 0-5.9-2.3-7.2-3.6-1.7-1.7-4.4-1.7-6.6-2.1-.5-1-1.1-2-1.8-2.7" fill="#0072ce"/><path d="M278.6 370.4c-.2-1.6 1-3 2.6-3.2h1.6c1.6-.2 3 1 3.2 2.6v21.4h-7.5v-20.8zm13 .2c0-2.3 1-3.4 2.9-3.4h.6c1.4-.1 2.7.5 3.4 1.7l8.5 11v-12.7h7v20.6c0 2.3-1 3.4-2.9 3.4h-.6c-1.3.2-2.6-.5-3.1-1.7l-8.7-11.2V391h-7l-.1-20.4zm26.2 0c0-2.1 1.3-3.2 3.4-3.2h15.2c2.3 0 3.4 1 3.4 2.9v.2c0 2.1-1 3.2-3.4 3.2h-3.8v17.4h-7.4v-17.3h-4c-2.1-.1-3.4-1.1-3.4-3.2m26 16.9v-16.1c0-2.5 1.3-4 3.8-4h15.9v6.4h-12.3v2.3h9.1v5.9h-9.1v2.7h12.3v6.4h-16.1c-1.8.2-3.4-1-3.6-2.8v-.8m36.5.8l-3.4-4.4h-1.3v7.5h-7.5v-19.7c0-2.5 1.3-4 3.8-4h7.5c6.6 0 10 2.7 10 7.9.2 3.2-1.9 6.2-5 7l5.2 6.6c.2.2-1 2.5-4.2 2.5-2.2-.3-4.1-1.5-5.1-3.4m-4.9-9.7h3.2c2.1 0 3.4-1 3.4-2.7 0-1.9-1-2.7-3.4-2.7h-2.9v5.5l-.3-.1zm18.6-8c0-2.3 1-3.4 2.9-3.4h.6c1.4-.1 2.7.5 3.4 1.7l8.5 11v-12.7h7v20.6c0 2.3-1 3.4-2.9 3.4h-.6c-1.3.2-2.6-.5-3.2-1.7l-8.7-11.2V391h-7v-20.4zm42.5 15.6h-7.7l-1.9 4.8h-7.5l8.5-22c.4-1.3 1.3-2.1 4.6-2.1 3.4 0 4.2.8 4.6 2.1l8.9 22h-7.7l-1.8-4.8zm-6.4-5.2h5l-2.5-7-2.5 7zm17.6-10.4c0-2.1 1.3-3.2 3.4-3.2h15.2c2.3 0 3.4 1 3.4 2.9v.2c0 2.1-1 3.2-3.4 3.2h-3.8v17.4H455v-17.3h-4c-2.2-.1-3.3-1.1-3.3-3.2m26-.2c-.2-1.6 1-3 2.6-3.2h1.6c1.6-.2 3 1 3.2 2.6v21.4h-7.5l.1-20.8zm12.1 8.8c-.2-6.7 5-12.3 11.7-12.5h.7c7.5 0 12.5 5 12.5 12.5 0 6.9-5.6 12.5-12.5 12.5-6.8.1-12.4-5.6-12.4-12.5m17.8 0c0-3.4-2.1-5.9-5.2-5.9s-5.2 2.3-5.2 5.9 2.1 5.9 5.2 5.9 5.2-2.2 5.2-5.9m11.8-8.6c0-2.3 1-3.4 2.9-3.4h.6c1.4-.1 2.7.5 3.4 1.7l8.5 11v-12.7h7v20.6c0 2.3-1 3.4-2.9 3.4h-.6c-1.3.2-2.6-.5-3.2-1.7l-8.7-11.2V391h-7v-20.4zm42.5 15.6h-7.7l-1.9 4.8h-7.5l8.5-22c.4-1.3 1.3-2.1 4.6-2.1s4.2.8 4.6 2.1l9 22h-7.7l-1.9-4.8zm-6.6-5.2h5l-2.5-7-2.5 7zm19-10.4c0-2.3 1-3.4 3.2-3.4h1c2.1 0 3.2 1 3.2 3.4v14.2h7.2c2.3 0 3.4 1 3.4 2.9v.3c0 2.1-1 3.2-3.4 3.2h-14.6v-20.6zm-293.6-94.7c0-9.1 4.4-14 12.9-14h21.6c23.3 0 36 10.2 36 29.6 0 19.5-12.2 29-35.3 29h-9.8v22.9h-25.4c0 .1 0-67.5 0-67.5zm25 26.2h9.3c7.7 0 11.7-3.8 11.7-10.6s-4.2-10.6-12.1-10.6h-8.9v21.2zm52.5-28.9c0-8.1 3.6-11.7 10.6-11.7h3.6c7.2 0 11 3.8 11 11.7v48.5h24.8c7.9 0 11.7 3.6 11.7 10.4v.4c0 7.2-3.8 11-11.7 11H354v-70.3h.2zm120 53.5h-26.5l-6.4 16.9h-25.2l29.2-75.4c1.3-4 4.6-7 16.1-7s14.4 2.9 15.7 7l30.5 75.4h-26.7l-6.7-16.9zm-22.1-18.2h17.5l-8.9-23.7-8.6 23.7zm58.5-35.3c0-7.9 3.8-11.7 10.4-11.7h2.3c5.9 0 7.9 1.7 11.4 5.9l29.2 38.1v-43.7h23.7v70.6c0 7.9-3.8 11.7-10.2 11.7h-2.1c-6.2 0-7.9-1.5-11.2-5.5l-29.8-38.7v43.7h-23.7v-70.4zm-434.7-2.6c-1.7 1-9.6 9.3-10.4 10.6-.4.6-1.9 3.2-2.1 3.4s-1.3 1.7-1.5 1.9-1 2.7-1.3 2.9c-.4.6-1.7 1.7-1.9 2.1.3 1.3-.2 2.6-1.3 3.4-1.3 1-2.1 5.2-2.3 5.5-.2.8-1.9 2.7-1.7 4.4 0 .8-.3 1.6-.8 2.1-.2.6-.2 2.7-1.5 3.2-1 .4-.6 2.1-.4 2.7.5 1 .6 2.1.2 3.2-.2.7-.1 1.5.2 2.2.8 1.3 0 3.4-.2 4-.2 3.8 2.3 4.8 1.7 7.2-.4 1.5.4 2.5.2 4 0 .8.3 1.6.8 2.1.4.8.7 1.6.8 2.5-.4 2.1 2.7 5 2.5 8.1-.2 2.5 2.9 3.8 3.2 4 1.5 1.9 1.5 4 3.2 5 .7.6 1.4 1.1 2.1 1.5 1 .6 0 1.3.2 1.5 1 1.8 2.3 3.4 4 4.6 6.6 7.7 22.3 17.3 24 17.5 1.5 0 2.9.6 4 1.5 2.2 1.3 4.5 2.3 7 3.2.8.4 1.7.2 2.5.6.8.2 5.7 2.1 6.4 2.3 1.8.8 3.7 1.5 5.7 1.9 1.5.4 3.2 1.3 4.8 1.7 1.9.4 3.4-1.3 4.8-.2 1.6.9 3.3 1.5 5 1.9 7.9 1.7 19.1 2.1 26.9 1.7 1.7.4 3.5.4 5.2 0 2.7-.2 5.9-1 8.7-1.3 4-1 8.7-2.1 12.5-4 1.3-.2 2.7-1.7 3.6-1.9 1.7-.8 3.3-1.8 4.6-3.2.2-.2 2.7-1.7 2.7-1.7.6-.3 1.1-.7 1.7-1 .6-.4 7-5.5 7-5.5.4-1 1.7-1.5 2.7-2.1a.78.78 0 0 1 .4-.4c.4-.4.8-.6 1.3-.8.2-.2.4-.2.6-.4l.2-.2c0-.2.1-.3.2-.4 0-.1.1-.2.2-.2.2 0 .2.2.2 0l.2-.2c0-.1.1-.2.2-.2.2-.2.2-.4 0-.4a.78.78 0 0 1-.4-.4c.1-.3.2-.5.4-.6s.4-.1.6 0a.78.78 0 0 0 .4.4c.2 0 .4-.2.4-.4s.1-.3.2-.4c.2-.2-.2-.2-.4-.2s0-.2.2-.2c0-.2-.2-.4-.4-.4s-.4.2-.6.2l-.2.2h-.2v.2c0 .2-.2 0-.2 0h-.8c-.1 0-.2.1-.2.2-.2 0-.2.2-.4.2-.4 0-.9.2-1.3.4-.2.2-.5.4-.8.4h-.6l.1.1-.2.2a.65.65 0 0 1-.6.6c-.5.2-1.1 0-1.5-.4-1 0-1-.6-1.3-1.3 0-.2-.1-.4-.3-.4h-.2a.78.78 0 0 0-.4.4c-.4.6-1.1 1.1-1.9 1.3-.4.1-.7.1-1 .2-.3-.1-.6-.1-.8 0-.2 0-.2.2-.2.4s-.2.2-.2.4c-.2.2-.4.4-.6.2-.2 0-.6-.2-.2-.6.2-.2.6-.2.4-.6 0-.2-.2 0-.4 0-.2.2-.4.2-.6.2-.4.1-.8-.2-.8-.6v-.2l.4-.4a.78.78 0 0 1 .4-.4c.2-.3.4-.5.6-.6.3.1.6 0 .8-.2.2-.4 0-.6.2-1s.6-.4.2-.8-.8 0-1.3.2c-.2.2-.4.4-.6.4-.4 0-.2-.2 0-.4l.6-.6c.1-.4.5-.6.8-.6.2 0 .5-.1.6-.2.2-.4 0-.6-.4-.6s-.9.2-1.3.4c-.3.2-.6.4-.8.6-.2.3-.6.4-.8.2h-.2c-.3.1-.5.2-.6.4-.4.2-.8.4-1-.2a.78.78 0 0 1 .4-.4s1-.2 1.3-.2c.4 0 .7-.2 1-.4 0-.1.1-.2.2-.2.4-.4-.2-1.3-.6-.8-.4.3-.8.6-1 1-.2.2-.5.4-.8.4-.2 0-.8-.2-.6-.6.2-.2.4-.3.6-.4l.6-.6 1.3-.6c.2 0 .8 0 .8-.4 0-.2-.2-.2-.4-.2h-.7c-.4 0-.7 0-1-.2-.2-.2 0-.6-.4-.6-.6 0-.2.2-.4.6-.4.3-.8.4-1.3.2-.2-.4.4-.8.6-.8.3-.2.7-.3 1-.2h.4c.2 0 .2-.4.4-.4s.2-.4 0-.4h-.8c-.3.2-.5.4-.6.6-.2.2-.5.4-.8.4-.4 0-.4-.4-.8-.4-.4-.2-.4.4-.4.6-.1.3-.5.5-.8.4l-.6.6c-.6.4-1.4.6-2.1.6-.3 0-.5.2-.6.4-.6.4-1.3-.2-1.9 0l-.4.2c-.2 0-.2-.2-.4-.2-.5 0-1-.1-1.5-.2-.3.1-.5.2-.6.4-.3.4-.8.6-1.3.6-.3-.1-.5-.2-.6-.4s-.4-.2-.5-.1l-.1.1c-.1.2-.2.5-.4.6-.2 0-.4 0-.4-.2s.2-.2.2-.4 0-.2-.2-.2l-.4.2h-1c-.2 0-.3-.1-.4-.2-.2 0-.2-.2-.4-.2a.78.78 0 0 0-.4.4h-.6c-.2-.1-.4-.1-.6 0l-.4.4h-1c-.8 0-1.7.1-2.5.2-1.3.2-2.3.6-3.6.8s-6.6.4-7.5.4-4.2-.2-4.4.2h-1c-.2-.2-.4-.3-.6-.4-.6-.2-.2.4-1-.2a3.6 3.6 0 0 0-2.3-.2c-1.5 0-4.2-.4-4.6-.4-.9-.2-1.8-.6-2.5-1.3-.4-.6-1.3-.6-1.3-1.5-.1-1.8.1-3.7.6-5.5.2-.8.4-3.8.6-4s0-.2.2-.4c1-1 .6-1 .8-2.1.4-1.7 1-4.4 2.9-4.8.9-.3 1.9-.6 2.7-1 1.2 0 2.4-.3 3.6-.6.3-.2.5-.3.8-.4 1.3-.2 2.3.2 3.6 0 .9-.1 1.8-.2 2.7-.2.4 0 0-.4.2-.4.6-.2.6.4 1.3.6 1 .2 2 .2 2.9.2.2 0 0-.2.2-.4.4-.4.6.4.8.4.4.4 9.3 1.5 10 1.5 1.2.3 2.5.1 3.6-.4a11.74 11.74 0 0 0 2.7-1.5c.1-.2.1-.4 0-.6.5-.5.7-1.2.6-1.9 0-.3 0-.6.2-.8.1-.3.1-.7 0-1-.1-.4.1-.8.4-1 .4-.4.5-1 .2-1.5-.3-.4-.6-.8-1-1s0 0 0-.4c-.2-.2-.4-.2-.6-.2-.6 0-1.1-.1-1.7-.2-1.1-.4-2.4-.6-3.6-.6-1.9 0-3.8-.8-5.9-.6-.4 0-1 .2-1.3.2-.4 0 0-.6-1.3-.6-1.1 0-2.1-.2-3.2-.4-.8-.2-3.8 0-4-.2-.2 0-.5-.1-.6-.2-.4-.4-.9-.7-1.5-.8-.2 0-.3-.1-.4-.2-.3.1-.7.1-1 0-.4-.2-1.3-.4-1.3-1-.2-1 1.7-2.3 2.5-2.7.6-.4 1.3-1.3 2.1-1 .4-.1.7-.3 1-.6 1.3-1.8 2.7-3.5 4.2-5 .8-.6.2-1.7 1.5-2.5.4-.5.8-1.1 1-1.7.6-1 .4-2.7 1.5-3.6l.3-.9c.1-.3 0-.6-.2-.8-.1-.3-.1-.7 0-1V308c-.1-.5.2-1 .7-1h.3c.4 0 0-1 0-1.5-.3-1.2-1.3-2.2-2.5-2.3-1.7-.2-2.9 1-4 2.3l-2.9 3.8c-.6.4 0 .6-.6 1.5-.2.2-.6.2-.8.4-.3.4-.5.9-.6 1.4.1.3 0 .6-.2.8-.8.6-.8-.2-1.3 0-1.5 1-1.5 1.5-1.7 1.5-.5.6-1.1 1-1.8 1.2-.7 0-1.4.3-1.9.8-.2.4-1.3.4-1.3-.2.1-.9.3-1.7.6-2.5.2-.8-1.3-1.5-.4-2.3.4-.4.4-1 0-1.4-.2-.5-.4-1-.4-1.5-.4-.6.2-.6-.4-1.5-.2-.4-.6.2-.8-.8-.2-.6-.6-1-1.1-1.2-.4-.4-1-.8-1.5-1.3a13.67 13.67 0 0 0-4.6-2.1c-1.7-.4-3.4-.5-5-.2-.4 0-1 0-1-.4 0-.1-.1-.2-.2-.2-.5-.1-1-.1-1.5.2-1 .4 0 .8-.6 1-.8.2-2.7.8-3.4 1-.4.1-.8.2-1.3.2-.6 0-.6.4-1.3.8-1.3.6-1 3.8-1 4.6 0 .2.1.4.3.4h.2c.2 0 .6.2.6 1 0 .6-.1 1.3-.2 1.9-.2.8.2.4.2 1s.8 2.7.6 3.2c0 .2.2.4.2.6 0 .1.1.2.2.2.4 0 .4.8.6 1.5.2.6.4 1.1.8 1.5.2.2.2.4.4.6s.4.4.2.6-.8.8-1 .6c-.4-.2-1.5-.2-1.9-.4-.8-.2-1.7.2-1.9 0-.3-.2-.7-.3-1-.4-.4-.2-.4.2-.6.2-.3-.2-.5-.4-.6-.6-.6-.5-1.3-.8-2.1-.8-1-.3-1.9-.7-2.7-1.3s-4-1.7-4-2.1c-.2-.4-1-.2-1.3-.4 0-.4-1-.4-1-.6 0-.4-.6-.2-.8-.4-.3-.3-.7-.4-1-.2a.61.61 0 0 1-.8 0c-.2-.2-.4-.3-.6-.4-.5-.2-1.1 0-1.5.4-.6.4-1.1.9-1.5 1.5-.2.4-.4.6-.6 1-.2.3-.4.6-.6.8-.2.3-.2.7.1.9.1.1.2.1.3.1.4.2 0 .6.4.8.6.2.8 1.5 1.5 2.1a7.2 7.2 0 0 1 1.5 2.7c.4.8 1.7.2 2.1 1a8.39 8.39 0 0 0 2.3 2.3c1.1.8 2.3 1.3 3.6 1.7 1.6.1 3 .8 4.2 1.9 1 .2 1.9.9 2.3 1.9.4 1.4.7 2.9.8 4.4.4 2.7 1.5 2.3 1 3.2-.6 1.3.4 2.5.4 5.7-.1 1-.4 1.9-.8 2.7-.6 1.7.4 4 .2 4.6-.4 1-.6 4.8-1.5 5.7-.4.3-1 .3-1.5 0-.8-.4-3.4.2-4-.2-1-1-2.5-.8-3.2-1s-1.5-.4-2.1-.8c-1-.6-5.7-2.1-7.5-3.2-4.2-2.1-10-4.6-10.4-7-.2-.8-6.6-5-7.5-6.4-.6-.8-1.7-1.9-1.9-2.3s-.4-1.7-.6-2.1c-.8-1-1.9-1.3-2.3-3.4-.2-.8-.6-.4-1.7-2.5-2.3-5.7-1.9-12.5-1.9-14.8 0-2.1 1.9-6.8 2.5-8.5.4-1 1.5-1.7 1.9-3.4 0-.6 2.7-2.3 3.8-4 1.1-1.5 2.5-2.7 4-3.8.8-.4 10.6-7.9 11.4-8.7.7-1.1 2-1.9 3.4-1.9.7-.1 1.3-.5 1.7-1 .2-1 10.4-3.6 11.9-5.2.4-.6 3.6-1.5 5-1.7.4 0 .4.4 1.3-.4.8-.6 2.3.4 3.4-.4 1.3-1.3 1.5-1.5 3.8-1.5s2.1-1.3 3.8-1.3c1.3 0 2.5-.6 3.2-1.7.4-.8 4.8-1 5.7-1.7 2.1-1.7 3.6.2 6.4-.4.4 0 1.5.2 2.1.2s1.7-.8 1.9-.2c.2.4 4.2.2 5.2.2.3-.1.5-.2.8-.2-.2.4 2.5.2 2.9.6.9.8 2 1.1 3.2.8 1.6-.1 3.3.1 4.8.6.8.2-.6.6 2.3.8 1.9 0 8.1 3.8 9.3 4 1.5 0 1.9 1.7 3.6 2.3 2.9 1 6.4 3.6 13.5 9.1.4.2.6 1.5 1 1.5 1.9 0 3.6 3.4 4.4 4.4.2.2 1.5-.4 1.3 1.7 0 .4.8-.2 1 1.3 0 1.7 2.9 2.5 3.8 6.2.1.4.3.7.6 1 1.2 3 2.1 6.3 2.5 9.6.2 2.5.2 5.1-.2 7.7-.7 2.6-1.5 5.1-2.5 7.7-.6 1.5-2.1 3.6-2.1 4.2 0 .4-.4 1-.4 1.7.1.4 0 .7-.2 1-.5.2-1 .5-1.3 1 0 .4-.8.4-.8.8 0 .6-1 .4-1 1 0 .4-.8.6-.6 1.3-.2.2-.4.3-.6.4-.5.4-1 1-1.3 1.7-.3.2-.5.5-.6.8-.2.4-.5.8-.8 1-.2.4-.6.4-.6.6-.2.3-.3.7-.2 1 0 .4-.6 1.5.2 1.5.3-.2.5-.4.6-.6.3-.3.6-.6 1-.6.5-.2 1-.5 1.5-.8.2-.4.5-.7.8-.8h.5c.1 0 .2-.1.2-.2.2-.2.4-.6.6-.8s.4 0 .6-.2c0-.2.1-.3.2-.4.2 0 .4 0 .4-.2a.78.78 0 0 0 .4-.4c.2-.3.5-.4.8-.2.4.2-1 1.5-1 1.7-.4.4-.4.8-.8 1.3l-.8.8c-.2 0-.2.2-.4.2 0 .2-.2.2-.2.4l-.6.6c-.2.2-.2.4-.4.6-.3.3-.4.7-.2 1 0 .2.2.4.4.2s.4-.4.4-.6c.2-.2.2-.4.4-.6s.4-.2.6-.4a.78.78 0 0 0 .4-.4 6.42 6.42 0 0 1 1-1.3l.6-.6c.2 0 .4 0 .4-.2s0-.4.2-.4.2.2.2.4 0 .2.2.2.4-.2.4-.4c.1-.3.2-.5.4-.6.2-.2.4-.2.6-.4l1.4-1.4c.2-.3.4-.5.6-.6h.4c.2 0 .2 0 .2-.2l.2-.2c.2 0 .2.4.2.6v.4h.4c.2 0 .4 0 .2.2 0 .2-.2.2-.2.4l-1.2 1.2c-.4.4-.6.8-1 1.3-.2.4-.6.6-.8 1-.3.4-.6.8-.8 1.3-.2.4-.5.7-.8.8-.2.2-.2.4-.2.6s-.2.4-.4.4c-.4.4-.6.8-.8 1.3 0 .2 0 .6.2.4a.78.78 0 0 1 .4-.4c.2-.2.4-.2.6-.2a.65.65 0 0 0 .6-.6c0-.2 0-.6.2-.6.2-.2.4 0 .6-.2.2 0 .4-.2.6-.2s.5-.1.6-.2v-.6c0-.2-.2-.2 0-.2l.2-.2c0-.2-.1-.3-.2-.4a.78.78 0 0 1-.4-.4c0-.2.1-.3.2-.4a.76.76 0 0 0 .2-.4v-.2c0-.1.1-.2.2-.2l.2-.2c.2 0 .4.2.6.2h1.3c.2 0 .4 0 .4-.2v-.2c0-.2-.2-.2-.2-.4s0-.4.2-.4c.1-.2.2-.2.4-.2.4 0 .8.6 1.3.4.2 0 .2-.2.2-.4l-.2-.2c0-.1-.1-.2-.2-.2-.1-.3 0-.6.2-.8l.6-.6c.2 0 .2-.2.4-.2s.2.2.2.4 0 .4-.2.4c-.3.2-.4.6-.2.8s.5.3.8.2h.8c.2 0 .2.4.2.4-.1.3-.2.5-.4.6l-.6.6c-.2 0-.3.1-.4.2-.3.1-.5.2-.6.4 0 .2 0 .4.2.4.3 0 .5.2.6.4 0 .5-.4.9-.8 1-.3.1-.5.2-.6.4l-.2.2v.4c-.2 0-.3-.1-.4-.2h-.2l-.2.2c-.1 0-.2.1-.2.2v.8a.76.76 0 0 0-.2.4c0 .2.4 0 .4 0 .2 0 .2-.2.2-.4.2-.2.4.2.4.4s-.2.2-.2.4.1.3.2.4c.3 0 .6-.2.8-.4-.1-.2-.1-.4 0-.6.2 0 .3.1.4.2a.76.76 0 0 0 .4.2.78.78 0 0 0 .4-.4c.2-.2.4-.4.6-.4.4-.1.8-.3 1-.6l.6-1.3c0-.2.2-.4.2-.6.4-.4.8-.2 1.3-.6.2-.1.2-.2.2-.4s.2-.2.2-.4c.1-.1.1-.3 0-.4 0-.2.1-.3.2-.4.2-.2.4-.2.4 0 .3.1.6.1.8 0 .1.3 0 .6-.2.8-.6.4-.4 1.3-1 1.9-.2.2-.6.2-.8.4s-.2.8-.4 1-.4-.2-.4 0a.76.76 0 0 0-.2.4v.2c0 .2-.4.4-.2.6h.4c.2 0 .3-.1.4-.2l.2-.2.2.2s.2.2.2 0v-.2l.2-.2.2.2c0 .2.4 0 .4 0l.2-.2c.2-.2.4-.4.4-.6l.6-.6c.2 0 .4 0 .4-.2.2 0 .4-.2.4-.4.3-.1.6-.4.8-.6s.4-.4.4 0v.4c0 .4-.6.4-.6.8v.4c0 .4-.4.2-.6.4a1.59 1.59 0 0 0-.8 1v.4a.76.76 0 0 1 .2.4h-.4c-.4 0-.2.4-.2.6s-.4-.2-.4.2c0 .2-.1.5-.2.6-.1.2-.4.4-.6.4h-.2c-.1 0-.2.1-.2.2v.4c0 .1-.1.2-.2.2l-.4.4c0 .1.1.2.2.2h.6c.1 0 .2-.1.2-.2.2 0 .2-.2.4-.2.4-.4.8-.6 1.3-1a6.42 6.42 0 0 1 1-1.3c.2-.2.4-.4.6-.4.4-.2.4.4.2.6 0 .2-.1.3-.2.4-.1 0-.2.1-.2.2a.76.76 0 0 0-.2.4c-.1.3-.4.6-.6.8s-.4.2-.6.4-.2.4-.4.6c0 .2-.2.4.2.4.3 0 .5-.2.6-.4.2-.2.6-.2.8-.4s.2-.4.4-.6c0-.2.2-.4.4-.4a.78.78 0 0 1 .4-.4c0-.2 0-.2.2-.2s.6-.2.6.2c-.1.3-.2.5-.4.6-.4.4-.8.9-1 1.5-.1.6-.3 1.2-.6 1.7-.2.2-.4.6-.6.8s-.4.2-.6.4l-.6.6a1.59 1.59 0 0 1-1 .8l-1 1c-.2.2-.2.4-.4.6s-.4.4-.4.6h-.4l-.2.2c0 .2-.2.2-.2.4a.76.76 0 0 0-.2.4c.2.4 1.3-.6 1.3-.6l3.7-3.7c.8-.8 1.5-1.6 2.1-2.5.2-.4.6-.8.8-1.3.1-.4.3-.7.6-1 .2-.2.6 0 .8-.2 1-.4 1.7-1.9 2.3-2.7 1.8-2.6 3.4-5.4 4.6-8.5.2-.4.2-1.5 1.3-1.7.6-.2.4-1.7.6-2.1.1-.8.3-1.6.8-2.3.7-1.1 1-2.3 1-3.6.2-1.3 2.7-10 2.1-16.7-.2-1.3-.2-9.3-2.3-11.9-1.5-1.5.2-3.6-.6-5.9-.2-.6.6-.8.8-1.5.6-1.5-.2-3.2-1.7-3.8-.8-.2-2.1-.2-2.5-1.3-.2-.4.6-2.3-.4-4.2-.4-.8-1.3-3.2-7.7-8.1-1.9-1.8-3.7-3.6-5.4-5.6a33.33 33.33 0 0 0-4.6-4.6c-.6-.4-1.5-2.3-4.2-3.4-.8-.4-7-5.2-7.7-5.5-2.5-.8-7-4-7.9-4.2-4.6-1-6.2-3.6-7.9-3.8-1.3-.2-4.8-.4-6.8-2.5-1-1.1-2.7-1.4-4-.6-.8.4-3.8-2.1-8.1-1.5-.8.2-1.7-1.5-4.8-1-2.9.4-5-1.7-6.2-1.9-1-.4-7.5-2.1-10.4-1.9h-1.7c-5.8-.8-11.8-.8-17.5 0-1.5.4-19.5 5-21.2 5.9-1.5.8-5.2 2.1-6.2 2.5-1.9.8-9.6 3.4-10 4.2-.2.4-1.3.4-1.7.8-1.3 1.4-2.9 2.5-4.6 3.2-1.5.6-9.1 6.2-10.6 7.2-.2-.2-4.8 3-5.4 3.4m173 22.2c0 .6-.2 1.2-.6 1.7h-.4c-.3-.1-.5-.2-.6-.4a.76.76 0 0 1-.2-.4c-.2-.1-.2-.2-.2-.4s-.1-.3-.2-.4c0-.2.1-.3.2-.4 0-.2.2-.2.2-.4a.76.76 0 0 1 .4-.2c.6-.3 1.3.2 1.4.9m-45.2 55.5c-.1.4-.3.7-.6.8-.2.2-.2.8-.6.4.2-.5.4-.9.8-1.3.2.1.4-.1.4.1m1.8.9c0 .2-.2.2-.2.4-.3.2-.5.5-.6.8l-.2.2c-.4.6-.9 1.1-1.5 1.5-.2.2-.6.4-.8.6-.2 0-.6.6-.8.4-.1-.2-.1-.4 0-.6a.78.78 0 0 1 .4-.4c.2-.2.2-.4.2-.6.1-.3.2-.5.4-.6.2-.2.5-.2.8-.2.4 0 .4-.2.6-.6 0-.1.1-.2.2-.2 0-.2 0-.2.2-.2s.2-.2.4-.2c.2-.2.4-.4.6-.4.2-.2.3-.1.3.1m20.5 2.3v.4c0 .2-.2.2-.4.2s-.4.2-.6.2-.4.2-.6.2c0 0-.6.2-.4.2.2.2 0 .2-.2.4-.2.1-.4.1-.6 0 0-.3 0-.6.2-.8s.4-.2.6-.4.4-.2.6-.4.4-.4.6-.4c.3.1.6.2.8.4m-13.3.6c-.2 0-.4.2-.4 0-.2-.2.2-.4.4-.4s.2.4 0 .4m.4.4c0 .2-.2.2 0 0-.2.1-.5.2-.6.4-.2.2-.4.2-.6.4 0 .2-.2.4-.4.4s-.4 0-.4-.2.2-.4.4-.4.4 0 .4-.2a.76.76 0 0 0 .2-.4h1m-13.3 2.9c-.6.6-1.7 1.5-2.3.8-.6-.6-.2-1 .2-1.7.8-.6 2.3-1.5 2.7-1s-.4 1.4-.6 1.9m22.4-.4c-.2 0-.2-.4-.2-.4v-.4c0-.2.4 0 .4 0 .2 0 .2 0 .2.2s-.2.2-.2.4c0-.2 0 0-.2.2m-12.7 0c-.3-.2-.4-.6-.2-.8 0-.2.2 0 .2 0 .2.2.2.4 0 .4.3.2.3.4 0 .4m-.8 1c0-.2.2-.2.2-.4l.2-.2c0-.2-.2-.2-.4-.2s-.3.1-.4.2c-.3.2-.7.3-1 .4h-.6c-.2 0-.4 0-.4.2v.4c.2.3.6.5 1 .4.2 0 .6-.2.8-.2l.6-.6m18 0c.2.2 0 .2 0 .2l-.2.2c0 .1-.1.2-.2.2-.2 0-.2-.2-.2-.4s.2-.2.4-.2h.2m-20.9 1.9c-.2 0-.4-.2-.4-.4.2-.2.6-.2.6 0 .2.2 0 .4-.2.4m-11.5 3.1a.47.47 0 0 1-.6-.1l-.1-.1c0-.2.1-.3.2-.4.2-.2.4-.4.6-.4.2-.2.4-.2.2.2a.78.78 0 0 1-.4.4l.1.4m30.3 1.9c.2 0 0 .8-.2.8-.5.1-.1-.8.2-.8m-2.4.7c.1.6-.1 1.2-.6 1.5-.2.2-.5.3-.8.2s-.5-.2-.6-.4c-.1-.5.2-1 .6-1.3.2-.2.4-.2.6-.2.4 0 .8 0 .8.2m-1.6 2.5l-.2.2c-.1 0-.2.1-.2.2h-.4v-.2l.2-.2c.1-.1.3-.1.4 0 0-.2 0 0 .2 0m-54.3-91.3c-.1.5-.3 1-.6 1.5-.2.2-.2.4-.4.6s-.4.2-.6.4a.91.91 0 0 1-1 0c-.4-.4 0-.8 0-1.3-.2-.7 0-1.4.4-1.9.3-.5.6-1 1-1.5.2-.3.6-.4.8-.2.7.5.4 1.6.4 2.4m-8.8 3.2c.1.5.3 1 .6 1.5.4.4.5 1 .2 1.5-.6 0-.4.4-.6.4-.4 0-1.9 0-2.3-1-.2-.3-.2-.7-.2-1 .1-.8.1-1.5 0-2.3 0-.6.8-.6 1.3-.4.3.3.7.8 1 1.3m17.9 1c-.2.6-1.3.8-.8 1.7.2.4-.4.6-.6.6-.8.2-1.7 1-2.5.6-.4-.6-1.5-.8-1.5-1.7.4-.8 1.3-.6 1.7-1.3.3.1 3.3-.5 3.7.1zm-21.2 6c0 .4-.1.7-.2 1-.4.3-1 .5-1.5.4-.6.1-1.1.1-1.7 0-.5-.1-.9-.3-1.3-.6-.2-.4-.2-.8-.2-1.3a1.1 1.1 0 0 1 1-.6c.5-.1 1-.1 1.5 0 .7.2 1.4.3 2.1.4.3.1.3.5.3.7m16.4 4.4c-1.4 2.6-3.9 4.5-6.8 5.2-1.5.2-3.2.8-4.4-.2-.4-.4-.8-.6-1.3-.8-.5 0-.9-.2-1.3-.4-.2-.4-.3-.8-.2-1.3 0-.2-.2-.6-.2-.8-.3-.4-.6-.9-.6-1.5-.1-.7 0-1.5.4-2.1.2-.2.8-1.5.2-1.5-.2 0-.2-.6.2-1 .6-.4.8-2.5 2.9-3.2 1.5-.4 2.5-2.3 4.2-2.3.8-.1 1.6-.1 2.3.2.7.1 1.4.5 1.9 1 .2.4 1.5 1 1.9 1.9.5.5.9 1.1 1.3 1.7 0 .4.4 1.5.4 1.9-.5.7-.7 2.8-.9 3.2m-4-4.2c-.3-.5-.7-.9-1.3-1-.5-.2-1-.2-1.5-.2-1-.4-1.7.6-2.5.8-.4.1-.7.3-.8.6-.8.6-1.5 2.7-1.7 3.2-.2.8.2 1.6 1 1.8.1 0 .2.1.3.1.7 0 1.4 0 2.1-.2 1-.4 1.9-1 2.5-1.8.5-.6.9-1.2 1.3-1.9.8-.9.6-1.3.6-1.4m9.8 4.4a.65.65 0 0 1 .6.6c0 .4-.4.2-.6.2-.4.2-.2.8-.8.8-.2 0-.6.2-.8.2-.7 0-1.4 0-2.1-.2a.78.78 0 0 1-.4-.4c-.4-.1-.6-.5-.6-.8 0-.2 0-.2-.2-.2-.2-.2 0-.6.4-.8h.6c.6-.2 1.3-.2 1.9 0 .3 0 .6 0 .8.2.4.2.8.3 1.2.4m-22.6 4l.2.2c.2.4-.2.6-.4.8s-.6.4-.8.6c-.3.2-.7.4-1 .4h-1.3c-.5 0-.8-.4-.8-.8.2-1.5 2.1-1.7 3.2-2.3.5-.1 1 .2 1 .7-.1.2-.1.3-.1.4m14.9 2.4c.3.3.6.6.8 1s.2.8.4 1.3c.2.6-.6.6-.8 1 0 .1-.1.2-.2.2-.3 0-.6 0-.8-.2-.3 0-.7-.1-.8-.4-.2-.2-.3-.5-.2-.8 0-.4-.1-.7-.2-1 0-.2-.2-.2-.2-.4v-.4c-.2-.4.2-.4.2-.8 0-.2 0-.4.2-.4.3 0 .6 0 .8.2.1.8.6.8.8.7m-7.7 1.5a1.65 1.65 0 0 1 0 1.9c-.2.4-.6 1-.8 1.5-.2.2-.2.4-.4.6-.4.1-.8 0-1-.4 0-.2-.1-.3-.2-.4 0-1.5 1-3.6 1.7-3.6.1-.2.5.2.7.4m46.9 72.2c-.4.2 0 1-.2 1.5-.2.3-.6.5-1 .4-.4-.2-.2-.4-.2-.8v-.4c.1-.1.1-.3 0-.4-.1 0-.2-.1-.2-.2v-.6h.2c.2 0 .3.1.4.2h.6c.1 0 .2-.1.2-.2.2 0 .4 0 .4.2 0-.1 0 .3-.2.3l-.2-.2c.4.2.2.2.2.2m-10.2-8c-.2 0-.2.2-.4.2s-.2-.2 0-.4v-.4c.2-.4.8 0 .8-.4 0-.2.4-.8.6-.6 0 .3 0 .6-.2.8 0 .2-.1.3-.2.4a.78.78 0 0 0-.4.4h-.2m9.5-14.2l-.2.2c0 .1.1.2.2.2 0 0 .4-.2.2-.4.1-.2-.2 0-.2 0m10 2.7c0-.2-.8 0-.6.2-.2.2.6 0 .6-.2m1.1-3.3c-.2 0-.2-.4-.4 0 0 .2-.2.4 0 .4.2.2.6.2.6 0 .2-.2.4-.4.2-.4h-.4m-4.6-1.3c-.2.1-.5.2-.6.4-.4.4-.8.8-1 1.3l-.6.6s-.2.2 0 .2.5-.1.6-.2c.2 0 .2-.2.4-.2s.2-.2.4-.2l.6-.6c.2-.2.2-.4.4-.6.2-.3.1-.6-.2-.7h0m7.7-.2h-.4c-.4 0-.4-.2-.6.2-.1.3-.1.7 0 1a.9.9 0 0 0 .6-.6c.4 0 .8-.6.4-.6m1.3 2.5c.2 0-.2.4-.4.6-.3.1-.6.2-.8.2 0 0-.4.2-.4 0v-.4c0-.2.2-.2.4-.2s.2-.2.4-.2c.2-.1.5-.1.8 0m-14 1.5c.4 0 .2.4 0 .4l-.4.4c-.6.4 0-.6.4-.8m-1.5 1.4c-.2-.2-.6.4-.8.6s-.8.4-.4.8c.3.1.7 0 .8-.3v-.1c.3-.2.5-.5.4-1m12.5.5c0 .1-.1.2-.2.2v.2c0 .1.1.2.2.2h.2c.2 0 .2-.2.2-.4a.76.76 0 0 1-.4-.2c.3 0 0-.2 0 0m0 1.2c-.8-.1-1.5.1-2.1.6-.4.4 0 1 .6 1.3.4 0 .7 0 1-.2.2-.2.2-.6.4-.8.2-.1.5-.2.6-.4.1-.3-.2-.5-.5-.5m9.4 3.1c-.6.2-1 .7-1 1.3.1-.1 1.4-1.6 1-1.3m-11.3-1c-.2 0-.8-.4-.8 0 0 .7.8.4.8 0m-28.4 7.3c-.3-.1-.6 0-.8.2-.2 0-.2.2-.4.2h-.4c-.2.2 0 .2.2.2h.4c.3.1.7-.1.8-.4.2 0 .4 0 .2-.2m-3 1.2c-.2.1-.4.2-.6.2s-.2 0-.2.2c-.1.1-.1.3 0 .4h.8c.3-.2.3-.5 0-.8m12.8-1.7a.78.78 0 0 0-.4.4l-.2.2c.2.2.2 0 .4 0s.3-.1.4-.2c.2 0 .2-.2.4-.2.3-.2.5-.4.6-.6 0-.4-.6 0-.6 0-.2.2-.4.2-.6.4m.4 2.6c.2.3.4.5.6.6.2 0 .8.2.8-.2a.76.76 0 0 1-.2-.4c0-.2-.2-.2-.4-.2h-.4c-.2-.2-.4-.3-.6-.4 0 .1.1.4.2.6m1.4-.7c0 .2.1.3.2.4.6.4.4-.2.6-.6 0-.2.4-.4.4-.6.1-.4-1.2.2-1.2.8m1.3 1.3c.2 0 .2-.2.4-.2.2-.2.4-.2.6-.4 0 0 .2-.4 0-.4-.3.2-.5.4-.6.6-.5.2-.9.5-1.3.8 0 .2.2.2.4.2s.2 0 .2-.2c.1-.4.3-.4.3-.4m.4.2c-.3.1-.6.3-.8.4l-.2.2c0 .1.1.2.2.2.1.2.2.2.4.2.1 0 .2-.1.2-.2v-.2l.2-.2c.2-.1.2-.3 0-.4m-.8 1.1c-.2 0-.2.2 0 0-.2 0-.4 0-.4.2-.2 0-.4.2-.2.4h.6l.2-.2c-.2 0-.2 0-.2-.4m8.1 3.8c-.2 0-.4 0-.4.2s-.2.4 0 .4c.6-.2 1.2-.4 1.7-.8-.5-.1-1 0-1.3.2m-9.6-.4c-.3.2-.5.5-.6.8 0 .4.4.4.8.4.9.3 1.8.1 2.5-.4.3-.4.4-.8.2-1.3-.2-.4-.6 0-1 0-.6.1-1.2-.3-1.9.5m14-1.2c0 .4.2.4.2.4.3.1.6.2.8.4a.78.78 0 0 0 .4.4c.2 0 .4-.2.4-.4v-.4c0-.2.2-.2 0-.2-.1-.2-.4-.4-.6-.4h-.6c-.2 0-.3.1-.4.2.2 0 0-.3-.2 0" fill="#fff"/></svg>