<svg xmlns="http://www.w3.org/2000/svg" xmlns:v="https://vecta.io/nano" width="404" height="301" fill-rule="evenodd" overflow="visible"><path d="M66.52 93.254V217.68c0 3.37-.374 5.057.75 6.742.562 1.127 1.686 1.686 2.623 1.686 1.3 0 2.437-.56 3.185-1.87 1.125-1.687.938-3.377.938-6.934V93.254h5.8v126.86c0 8.617-3.186 12.928-9.93 12.928-2.812 0-5.247-.934-7.12-2.994s-2.812-5.25-2.812-9.744V93.254h6.56zm62.025 139.04l-9.37-85.447v85.447h-5.06V93.254h6.746l9.556 80.2v-80.2h4.312v139.04zm56.778-76.453v4.873h-9.182v65.773h10.493v5.807h-18.74V93.254h17.428v5.997h-9.182v56.6zm181.95-82.26V85.2H39.912V73.58zm0 169.022v11.615H39.912v-11.615zm17.988 23.42v11.62H18.926v-11.62zm18.363 22.674V300.5H.375v-11.805zM202 .5l164.52 46.848v12.367L200.5 14.554 39.163 60.462V48.096zm127.235 59.962h-33.92L203.3 35.54l-91.816 24.173-35.043.748 127.232-36.54zm-97.255 72.893h7.12V106.37s-.2-7.87-2.064-10.117c-1.87-2.062-4.12-3.937-8.992-3.937-4.684.2-5.8 1.5-7.496 3.56-1.875 2.062-2.623 5.62-2.623 9.37s.2 20.424.748 26.044c.563 5.437 5.8 27.545 8.8 38.23 2.813 10.867 4.123 16.303 4.313 19.3.186 3.182.56 13.865.186 19.1-.186 5.246 0 12.553 0 12.553s.373 5.8-2.998 5.8c-3.56 0-3.187-5.8-3.187-5.8V187.5h-7.12v32.793s-1.87 12 9.37 12c11.432 0 11.432-10.68 11.432-10.68V191.63s-.564-9.932-2.44-16.863l-9.182-34.293c-1.496-6.368-2.06-15.74-2.06-24.17l.2-13.678s-.2-3.935 2.998-3.935c2.998 0 2.813 4.122 2.813 4.122l.186 30.543zm54.528.375h6.184V101.3c0-5.057-2.8-10.117-9.746-10.117-6.367 0-10.113 4.684-10.113 10.304V223.3c0 5.43 3.746 10.12 10.113 10.12 6.938 0 9.746-4.873 9.746-9.936v-36.537h-6.184V223.3c0 1.875.2 4.12-3.562 4.12-3.934 0-3.555-3.37-3.555-4.684v-120.86c0-1.312-.38-4.686 3.555-4.686 3.752 0 3.563 2.437 3.563 4.3v32.23zm51.72-42.536c-6.37 0-10.867 4.684-10.867 10.304V223.3c0 5.43 4.498 10.12 10.867 10.12 6.932 0 10.494-4.873 10.494-9.936V101.3c0-5.057-3.562-10.117-10.494-10.117h0zm4.3 132.107c0 1.875-.56 4.12-4.3 4.12-3.936 0-4.3-3.37-4.3-4.684V101.875c0-1.312.373-4.686 4.3-4.686 3.75 0 4.3 2.437 4.3 4.3v121.8z"/></svg>