<svg xmlns="http://www.w3.org/2000/svg" viewBox="0 0 207 209.9"  fill="#5289c3" xmlns:v="https://vecta.io/nano"><path d="M119.1 62.2a42.24 42.24 0 0 1 3.6-6.6l2.1-2.7a1.69 1.69 0 0 0-1 .3c-.7.5-1 1.3-1.5 1.7-1.2 1-1.2 1.9-1.9 2.3-.5.3-.9.8-1.2 1.3s-.6 1-.7 1.6c-.1.3-.3 0-.8.7-.6.9-1 1.9-1.2 2.9-.1.3-.7.5-1.1 1.2-.5 1-.9 2.1-1.1 3.3-.1.3-.6.6-1 1.5-.3.6-.6 1.3-.7 2s-.5.8-.9 1.9c-.2.9-.4 1.8-.4 2.7-.2.4-.4.8-.7 1.2-.4.9-.6 1.8-.7 2.7a10.64 10.64 0 0 0-.9 2.5c-.2 1-.2 2-.1 3.1-.4 1.7-.5 3.4-.4 5.2l.2 2.6-.3 7.8c0 1.9.1 3.8.4 5.7l.7 3.6h6.7c-.1-2.6-.1-5.3.1-7.9.2-2.3.7-4.6 1.3-6.8s1.4-4.4 2.3-6.6c0-.1 0-.4-.3-.1-.7.5-1.3 1.2-1.8 1.9l-2 3.6c-.8 1.5-1.2 2.8-2.1 4.7 0-1.3.1-2.6.4-3.8.6-3 1.7-5.9 3.4-8.6.7-1 1.4-1.9 2.3-2.7l3-2.6c-1.1-.6-2.6.6-2.9.7-1.6.3-2.2 1.8-2.7 1.9-.6.3-1.1.7-1.5 1.3-.4.4-.5 1.1-.9 1.3-.7.5-1.2 1.1-1.5 1.8-.2.3-.7 2-1.2 1.8.9-5.5 2.9-10.7 6-15.3 1.9-3 4.4-5.6 7.3-7.7.4-.3.5-.4-.1-.4-3 .4-3.1 1.7-3.6 1.8-.5.2-1 .6-1.4 1-.7.7-.6 1.2-.9 1.4-.5.4-1 .8-1.3 1.4-.2.3-.5 1.1-.8 1.3-.8.4-1.4 1-1.9 1.8-.2.5-.5 1.1-.7 1.6-.4.5-.9.9-1.4 1.3.5-2.6 1.3-5.1 2.2-7.5 1-3 2.2-6.1 3.6-9.1z"/><path d="M125.9 81.3c2.4-5.3 5.2-10.3 8.6-14.9.4-.7.9-1.3 1.2-1.9l1.2-1.8c1.1-1.8 1.6-2.3 2.8-4 .3-.4.6-.8.7-1.3.2-1-.6-1.6-.8-2.6-.2-.9-.1-1.9.4-2.8.3-.4.6-.9.8-1.4.5-1.3.3-4.1 1-4.2-.2 1.4-.2 2.8 0 4.1.2 1.5 1.2 2.4 1.5 4 1-.2 2-.2 3-.1 1 0 1.9-.1 2.8-.5 1.2-.4 2.1-1.1 3.4-1.4-1 1-2.5 1.3-3.7 2.1-.5.3-.9.7-1.1 1.1-.5.8-.9 1.5-1.6 1.8-1.4.6-2.5.3-4.1.6-2.5 2.7-4.6 5.7-6.4 8.9-5 8.5-9.2 17.4-11.7 26.4.9-1.6 1.6-3.1 2.6-4.6 1-1.7 2.2-3.3 3.4-4.9 2.9-3.8 5.8-7.2 9-10.7 2.5-2.8 5.4-5.2 8.6-7.2 4.2-2.6 9.4-4.5 13.9-3.5.6.1 1.1.3 1.6.6-5.2-.7-10.5.9-14.6 4.2-3 2.4-5.7 5-8.1 8-1.3 1.5-2.5 3.2-3.7 4.8s-2.4 3.5-3.4 5.3c-3.6 6-6.5 12.5-8.5 19.2-.1.2-.1.4-.1.6.1-.1.2-.3.3-.5 2.8-4.5 6.1-8.8 10.3-11.8.4-.3.7-.7.9-1.1.5-1.8-.9-2.6 1-5.1.4-.6 1-.8 1.4-1.3.8-1.2 1.4-3.3 2-3.9-.5 1.4-.9 2.8-1.3 4.3 0 1.5.1 3 .3 4.5 1 .2 1.9.5 2.9.9 1.1.3 2.3.4 3.5.2a8.33 8.33 0 0 1 2.2-.3c-1.3.7-3.1.6-4.4 1.2-.9.5-1.2 1.2-2.5 1.4a4.78 4.78 0 0 1-2.9-.3c-.4-.3-1-.4-1.5-.2-1.3.7-2.5 1.6-3.4 2.7-2.7 2.7-4.9 5.9-6.7 9.3-.5 1-1 2-1.4 3-.2.5-.8 1.9-.8 1.9h-6.7v-2.7a26.29 26.29 0 0 1 .6-3.9c.4-2.1.8-3.9 1.3-5.9s1.1-3.8 1.8-5.7l4.4-10.6zm-65.3 52.6c2.1-1.7 4.4-3.3 6.7-4.6 1-.6 2.5-1.3 3.7-1.8 4.8-2.1 10-3.3 15.2-3.4h39.9c1.2 0 2.4.4 3.3 1.2.8.8 1.2 1.9 1.4 3 .1.9.1 1.9-.1 2.8-.1.7-.4 1.4-.8 2-.3.4-.6.8-1 1.1-.6.4-1.4.6-2.1.6h-47a69.92 69.92 0 0 0-9.2.6c-2.3.3-4.6.7-6.8 1.2-2.8.8-5.5 1.7-8.2 2.8 1.4-2.2 3.1-3.9 5-5.5zm13.8-15.8c2.5-1.7 5.2-3.1 8-4.2l4.5-1.4c1.7-.4 3.5-.7 5.2-.8h34.1s.7 0 1 .1c.5.1.9.3 1.4.5.6.4 1.1 1 1.5 1.6.8 1.4 1.1 3.1.8 4.7-.3 1.9-1.7 4-3.7 4H89.4l-3.1.1-5.4.5-4 .8c-4.5 1.2-8.5 3.5-12.6 5.3 2.5-4.4 6-8.2 10.1-11.2zm-19 23.1c5.9-3.5 13-4.9 19.5-5.1h51.9c3.1 0 4.2 3.1 4.2 5.5 0 .7-.1 1.5-.4 2.2s-.6 1.3-1.1 1.9c-.3.3-.7.6-1.2.8-.5.1-1 .2-1.6.1H88.9l-3.4-.2a33.44 33.44 0 0 1-2.9-.4c-2.4-.6-4.7-1.2-7-2.1-1.5-.5-3.1-.8-4.7-1.1-3.1-.5-6.3-.7-9.4-.4-3.8.3-7.5 1-11.1 2.2.6-.9 3.2-2.3 5-3.4zm27.4 15.9c-1.8-.6-3.4-1.4-5-2.4-2-1.3-3-2.4-5.5-3.5-2.3-1.2-4.6-2.2-7-3.1-1.9-.7-3.9-1.2-5.9-1.6l-5.8-.7a4.67 4.67 0 0 1 1-.5c2.8-.9 5.7-1.4 8.7-1.6 2.6-.2 5.3 0 7.8.5 1.3.2 2.6.5 3.8.9 4 1.2 8.7 3 12.8 3h38.1c1.1 0 3.3.4 4.1 1.9 1.1 1.8 1.2 4 .5 5.9-.3.8-.7 1.5-1.3 2.1-.5.4-1.2.7-1.9.8H93.6c-3.6 0-7.3-.6-10.8-1.7zm15 11.8l-3.4-3.8c-1.3-1.5-2.4-3.2-3.2-5.1h22c0 1.8-.2 3.7-.5 5.5-.5 2.7-1.3 5.3-2.6 7.7 0 2.1.9 4.1 1 6.2-1.9 1.1-3.7 2.3-5.4 3.8-.1.1-.3.1-.3-.2-.9-3.3-1.3-6.2-2-9.4-2-1.4-3.8-3-5.6-4.7zm22.8-1.8c-.5-1.2-1.1-2.4-1.8-3.6-.1.8 0 1.3-.1 2.1s-.6.4-.7.1l-.9-2.9c-.3-.9-.5-1.9-.6-2.8h3.7s.1 0 .2.4c.2.9.1 1.8.4 2.9.3 1.3.8 2.6 1.3 3.9.4 1.1 1 2.3 1.5 3.4.1.2.1.4 0 .6-.1.1-.3.2-.4.1l-.1-.1c-1.2-1.3-1.9-2.7-2.5-4.1zm5.6 2.6c-.6-1.3-1.5-2.8-1.4-4.3.4.5.6.9 1.1 1.2.3.1.8 0 .7-.4-.2-.8-.6-1.5-1-2.7l-1-3.5h-3.7c.2 1.3.6 2.6 1.1 3.9.9 2.3 1.9 4.5 3.2 6.6.9 1.7 1.9 3.3 3.1 4.8.4.4 1.4.1 1-.6-1.3-1.6-2.3-3.3-3.1-5zm24.3-126.4c-.8.3-1.5.9-1.9 1.6-.3.6-.5 1.4.1 1.9 1 .8 2.2 0 2.6-.9.4-1 .5-2.1.4-3.2 0 0-.7.3-1.2.6zm.8 5.2c.5-.8 1.2-1.5 2-1.9l2.6-1.6c.6-.4.8-.7.8-.7-.3.1-.6.2-.9.4l-4.3 2.5c-1.1.4-2.3.6-3.4.7a20.21 20.21 0 0 1-.6-3.4c0-.7.1-1.3.3-2 .4-1.9.4-2.9.4-2.9-.3.3-.4.7-.4 1.1-.1.8-.2 1-.4 1.9-.1.9-.4 1.8-1 2.6-.9.9-1.7 2.6-1 3.8.4.7 1.1.6 1.3.8s.3.6 1 .8c1.4.5 2.9-.8 3.6-2.1z"/><path d="M149.6 52.4a4.62 4.62 0 0 1 1.7-1.7l2.9-1.6a1.21 1.21 0 0 0 .7-.7c-1 .4-1.9.9-2.8 1.4-1.1.7-2.2 1.1-3.4 1.2-.3 0-.7 0-1-.1-.5 0-1.1 0-1.6.1-.1-.6-.3-1.1-.5-1.7-.2-.4-.4-.9-.5-1.4s-.1-1-.1-1.5c.2-1.2.3-2.4.4-3.6-.8 1.6-.4 3.6-1.4 4.8-.4.5-.7 1-1 1.6-.5 1-.4 2.3.2 3.2.4.6 1.2.6 1.4.7s.4.8 1.2 1c1.4.3 2.9-.4 3.8-1.7zm.4 31.2l1-2.2c-1 .1-1.1.2-2.5.4-.4.1-.8.3-1.1.5-.6.5-1 1.2-.8 2 .1.3.3.6.6.7 1.1.3 2.3-.3 2.8-1.4zm1.1 1.8c1.3-.3 2.8-.9 3.4-.7-1.3.6-2.7 1-4.1 1.3-1 .4-1.9 1-2.7 1.8a2.74 2.74 0 0 1-3 .4c-.4-.2-.6-.6-.7-1 0-.2-.5-.5-.8-.7-.2-.3-.4-.6-.4-.9 0-1.8 1.3-2.6 2.7-3.6 1-.8 2.3-4.2 3.1-4.9-.1 1.1-1.6 3.2-2.2 4.8-.5 1.3-.3 2.3-.6 3.6l3 .3 2.3-.4zm-1.3 2.7c-.7.1-1.6.4-2.2.5-2.1.4-3.1-.6-4.9-.6.1-2-.5-2.8 0-4.1l1.4-3.3c.2-.4.4-.9.4-1.4 0 0-.5.8-2 3.6-.5 1-1.4 1.2-2.2 2.2s-1.5 3.4.3 4.3c.4.2.3.8.6 1 1.1 1.1 3.5 1 4.9-.3 1.1-.8 2.4-1.4 3.8-1.6.5-.1.9-.3 1.3-.5l-1.4.2zm-40.6-14.6c.7-2.3 1.1-4.6 1.4-6.9.4-3.6-.6-7.2-2.8-10 .2 1.2.5 2.2.7 3.4.1 1.5 0 3.1-.4 4.6-.3 1.1-.8 2.2-1.3 3.3-.7 1.3-1.4 2.5-2.4 3.7-2.5 3.1-6.3 9.1-6.3 9.1h-.5c0-.8 1.7-3.3 2.6-4.8 2-3.1 3.4-4.8 5.2-7.6 1.1-1.7 1.8-3.7 2.2-5.7.5-3.9-1.5-8.5-4.5-10 .7 2.9.6 7-.9 8.7-2.7 2.9-5 6.2-6.7 9.8-.1.1-.5-.6-.9-.8-.4-.3-.2-1.2-.4-1.8-.1-.4-.3-.7-.5-1-.6-.8-1.2-.8-1.3-1-.1-.6-.3-1.1-.6-1.6-.3-.4-1-.6-1.2-1s-.4-1.5-1.3-2c-.4-.2-.6-.9-1-1.2-.7-.6-1.6-.9-2.6-.9a4.98 4.98 0 0 0-1.9-1c-1-.2-1.6.5-2.1.3a3 3 0 0 0-4 .9c-.4.5-1.2 0-2.1.7s-.8 1.2-1.2 1.2c-.7.2-1.3.7-1.6 1.4-.2.5-.3 1-.4 1.5-.2.5-.3 1.1-.4 1.7 0 .7.2 1 .1 1.3s-.4.8-.5 1.2 0 .8.1 1.2c.2.4-.1.8-.3 1.2-.2.5-.3 1-.3 1.6.1.7.5.9.2 1.5-.8 1.2-.8 2.7 0 3.9.2.3-.4.9-.5 1.8.1.8.3 1.5.7 2.1 0 .2-.3.1-.3.3-2.4-2.7-5.1-5.3-7.9-7.7-1.8-1.4-3.7-2.7-5.7-3.7-5.4-2.9-11.7-4.9-17.5-4.2 2.2 1.7 4.9 3 7.1 5s4 3.5 5.9 5.5c2.9 3.1 5.6 6.5 8 10 .8 1.1 1.2 1.8 2 3s1.5 2.3 2.1 3.5c3.3 5.7 5.9 10.9 8.6 16.7.8 1.6 1.4 3.3 2.1 4.9.2.4.5.1.7 0 1-.6 2-1 3-1.5.8-.4 1.6-.6 2.3-.9 1.8-.6 3.6-1.1 5.5-1.5 3-.4 5.9-.6 8.9-.5h11.2c-.1-3.1-.9-6.1-1-9.3-.1-2.5-.1-5 0-7.5.2-7.2 1.1-14.2 2.7-20.9zm-12.7 5.4c.2.6.5 1 .2 1.7-.2.7-1 .8-1.7 1.1s-1.7.5-2.2 0-.8-1.9-.1-2.4c1-.8 3.3-1.8 3.8-.4zm-7.8 12.5c-.7.8-1.9.8-3.1 1.1-.5.1-1-.2-1.2-.7-.4-.8-.9-1.8 0-2.6s1.6-.6 2.5-.8c.4-.2.9-.2 1.3 0 .9.6 1.2 1.8.7 2.7-.1.2-.1.2-.2.3zm1.5 3c.3.8 0 1.8-.8 2.2-1.1.4-2.6 1-3.4.4-.9-.6-1.5-2.6-.3-3.3 1.2-1 3.9-1.6 4.5.7h0zM76.4 69c.3-.8 1.3-.8 2.1-.7.7.2 1.1.9 1 1.6 0 .1-.1.2-.1.3-.5.7-1.6.6-2.4.5s-.9-1.1-.6-1.7zm-.2-2.8c0-.2.2-.3.4-.4.6-.3 1.4-.3 2 0 .4.3.5.9.1 1.3 0 0 0 .1-.1.1-.6.5-1.5.6-2.2.2-.3-.3-.4-.8-.2-1.2zm6.4 1.4c-.8.5-1.8.6-2.7.3-.6-.4-.7-1.2-.3-1.8.7-.8 1.8-1.1 2.8-.7.7.3.9 1.1.6 1.8l-.4.4zm1 1.3c.7.5.9 1.4.4 2.2-.9 1-2.4 1.3-3.6.6-.6-.4-.9-2.2.3-2.6.9-.6 1.9-.6 2.9-.2zm-6.8 2.9c.9-.4 2.7-.7 3 .6.4 1.8-1.7 2.1-2.8 1.8-.9-.3-1-2.1-.2-2.4h0zm-.1 4c.8-.8 2-1.2 3.1-.8.6.2.9.9.9 1.8 0 .4-.3.8-.6.9-.8.3-1.6.5-2.4.4-.8-.2-1.3-1-1.1-1.8-.1-.2 0-.3.1-.5h0zm.5 3.7c.9-.7 2-.9 3.1-.7.6.1.9.7 1 1.4.2 1.9-2.3 2.2-3.5 1.8-.8-.5-1.1-1.6-.6-2.4v-.1zm3.7-4.8c-.6-1.9 1.8-2.6 3.2-2.2 1 .2 1.3 2.1.4 2.7-1.1.7-3.1.9-3.6-.5h0zm9.8 2.2c-.6 1-2.4 1.1-3.2 1-.6-.1-1-1-1-1.8 0-.3.1-.7.4-.8.9-.5 1.9-.8 2.9-.7.9.3 1.4 1.2 1.1 2-.1.1-.2.2-.2.3h0zm.5 2a1.81 1.81 0 0 1 .1 2.1c-.5.7-2.3 1-3.1.8-.5-.1-.7-.7-.8-1.1-.2-.5-.1-1.1.3-1.5.7-.5 1.6-.8 2.5-.6.3-.2.7 0 1 .3h0zM89.8 73c-.6 1-3.2 1.6-3.8.6-.4-.7-.7-1.7.1-2.2s1.8-.8 2.8-.6c.8.2 1.3 1.2.9 2.2.1-.1 0-.1 0 0h0zM88 69.7c-.4.3-1 .6-1.5.7-.8.2-1.5-.2-1.8-1v-.2c-.2-1.4 1.3-1.6 2.3-1.8.6-.1 1.2.3 1.3.9s0 1.1-.3 1.4h0zM82 77c1.1-.6 3.4-1.4 3.9.3.2.7.2 1.6-.4 1.9-.9.5-2.3 1-3.3.3s-.9-2.1-.2-2.5h0zm.9 4c1.1-.8 3.3-1.3 3.9.4.2.4.2.9 0 1.3-.6 1-2.2 1.3-3.2 1.1-.9-.3-1.4-1.2-1.1-2.1 0-.3.2-.6.4-.7h0zm.9 4c.9-.5 2.3-1 3.3-.4.6.5.8 1.3.6 2-.7 1.2-2.5 1.4-3.6 1.1-.8-.4-1.1-1.5-.7-2.3 0-.2.2-.4.4-.4h0zm4.4-.1c-.2-.6-.4-1.4 0-1.8.9-.7 3-1.4 3.8-.3.5.8.3 1.8-.5 2.3h0c-.9.5-2.7 1.1-3.3-.2h0zm6.4-10.6c.4 0 .8.5 1.1 1.1.2.6.1 1.2-.2 1.7-.5.4-2.2 1.4-3.3.8-.5-.4-.8-.9-.8-1.6-.2-1.5 2-2.1 3.2-2zm-.5-2.5c.3.5.3 1 .1 1.5-.7.8-1.8 1.2-2.9.9-.7-.4-.8-1.3-.4-2 .7-.8 1.7-1.1 2.7-.9.2 0 .3.3.5.5h0zm-1.9-4.1c.9.1 1.1 1.4.9 1.9a1.96 1.96 0 0 1-.9.9c-.6.4-1.4.4-2.1.2-.6-.4-.8-1.2-.5-1.8.6-.9 1.6-1.4 2.6-1.2h0zm-1-1.8c.2.7-.3 1.1-.9 1.4s-1.4.6-1.8.2c-.5-.4-.7-1.2-.2-1.7l.1-.1c.8-.8 2.2-1.4 2.8.2h0zm-2.4-3.1c.4 0 .6.3.7.7s-.1.8-.4 1.1c-.4.3-.9.4-1.4.5-.6 0-1-.5-.9-1.1 0-.1 0-.2.1-.3.4-.7 1.1-1 1.9-.9h0zm-1.5-2c.4.1.6.4.5.8v.1c-.2.3-.4.5-.7.6-.6.4-1.1.2-1.3-.2-.4-.8.8-1.6 1.5-1.3h0zm-.8 4a1.25 1.25 0 0 1 .3 1.6h0c-.5.5-1.1.8-1.7.8-.5.1-1-.2-1.2-.7-.1-.4-.1-1 .2-1.3.5-.8 1.5-.9 2.4-.4h0zm-1-2.4c.4.6-.2 1.2-.5 1.4-.6.4-1.5.6-1.9 0-.3-.5-.1-1.2.4-1.5.1 0 .1-.1.2-.1.5-.3 1.2-.7 1.7.2h.1zm-3.4-2c.3-.7 1.2-1.1 1.9-.8.2.1.4.3.5.6.1.5-.1 1-.5 1.2-.4.4-1.1.5-1.6.3a.88.88 0 0 1-.5-1.2v-.1h.2zm.3 3c-.1.5-.6.9-1.1 1-.6.1-1.4.2-1.8-.2-.4-.3-.4-.8-.2-1.2.5-.7 1.4-1 2.3-.9.5.1.9.7.8 1.3h0zm-3.7-2.9c.3-.8 1.2-1.3 2-1h0c.5.3.7.9.4 1.3-.1.1-.1.2-.2.3-.3.3-.6.4-1 .5-.8.2-1.6-.2-1.2-1.1h0zm-.5 4.3c-.7.2-1.8.3-2-.5-.4-1.3 1.2-1.5 2.1-1.2.4.3.6.8.3 1.3-.1.2-.3.3-.4.4h0zm-2.1-3.3c.1-.2.3-.4.5-.5.4-.1.8-.1 1.1 0 .7.3.6 1.1-.1 1.4-.3.1-.7.2-1.1.1s-.7-.4-.6-.9c0-.1 0-.1.1-.2l.1.1zM74 63c.5-.2 1.1-.1 1.5.2.5.5.1 1.3-.8 1.3-.3 0-.6-.1-.9-.2-.3-.2-.4-.7-.2-1.1.1-.1.1-.2.2-.2h.2zm-.6 2.3c.6-.2 1.3-.2 1.8.1.3.2.5.5.4.9s-.6.7-1.2.7c-.5 0-1.1 0-1.4-.5a.95.95 0 0 1 .2-1.3l.2.1zm2 2.8c.3.1.4.4.5.6.1.7 0 1.4-.7 1.5-1 .2-2.4.2-2.4-1.1-.1-1.5 1.4-1.5 2.6-1h0zm-2.8 3.1c.9-.4 2.4-.5 3 .4.4.6.3 1.7-.4 1.9s-2.6.5-3.1-.6c-.3-.6-.1-1.3.5-1.7zm-.6 3.7c.8-.8 1.9-.4 2.9-.3.2 0 .4.1.6.3.6.6.7 1.6.1 2.2l-.1.1c-.9.7-2 .2-3 .2-.3-.1-.5-.3-.7-.6-.3-.6-.2-1.3.2-1.9h0zm0 4.4c.5-1.2 2.5-1.2 3.5-.7.7.5.9 1.6.4 2.3-.1.1-.2.3-.4.4-.9.4-1.9.4-2.8.2-1-.2-1.1-1.4-.7-2.2h0zm.7 5.1c-.4-.4-.3-1 .1-1.4l.2-.2c1-.4 2.1-.5 3.1-.2.6.2.9 1 .8 1.9 0 .4-.1.8-.3.9-.8.4-1.7.5-2.6.3-.7-.1-.9-.9-1.3-1.3h0zm4.1 5c-.8-.7-1.4-1.5-1.8-2.4-.2-.2 0-.3.1-.3 1.5-.4 2.6.3 2.4 2-.1.3-.3 1-.7.7h0zm1-5.5c.1-.4.5-.6.9-.7 1-.2 2.1-.6 3 0 .4.2.4.5.4 1 .1.7 0 1.3-.5 1.6-.9.5-2 .6-3 .4-.9-.3-1-1.5-.8-2.3h0zm1.2 3.6c1.2-.8 3.5-1.4 3.9.8.2.7-.2 1.5-.9 1.8-.9.4-1.8.5-2.8.3-.8-.5-1.1-1.5-.6-2.3.2-.3.3-.5.4-.6h0zm-.3 5c-.1-.2-.2-.6-.1-.8 1-.6 2.2-.9 3.4-.7 1.4.1 1.7 1.4 1.5 2.5-.3 1.5-2.5 1.7-3.1 1.5s-1-1.6-1.7-2.5h0zm2.7 4.4c-.1-.2-.4-.8-.2-.9 1.8-.6 3.2-.6 3.5 1.3.3 1.4-.7 2.6-2 2.1-.4-.2-.8-1.6-1.3-2.5h0zm3.7 6.8c-1-.8-1.1-2.2-1.8-3.2.7-.5 1.8-.3 2.3.4 0 .1.1.1.1.2.3.8.5 1.9-.2 2.4-.1.1-.3.3-.4.2h0zm1.5 3.5c-.4-.2-.4-.8-.6-1.1-.2-.4-.5-.8-.4-1.3.8.5 1.2 1.5 1 2.4h0zm1.9-2.8c-.1.6-.3 1.1-.5 1.7-.1.3-.3-.1-.3-.1-.4-.8-.5-1.7-.3-2.6.3-.5.8-.9 1.4-.9 0 .7-.1 1.3-.3 1.9h0zm1.6-5.7c-.3.8-.4 1.4-.7 2.1s-1.5.9-2.2.7c-1-.3-1.8-2.5-.7-3.3.8-.5 1.8-.9 2.8-.9.3 0 .6 0 .9.1.2.4.1.7-.1 1.3h0zm1.5-5c-.3.4-1-1-1.1-1.6-.3-1.8 1.3-2.3 2.7-2.3a8.98 8.98 0 0 1-1.6 3.9h0zm2.2-5.6c-.4 1.1-1.6 1.2-2.6 1.4-.4 0-.7 0-1-.3-.5-.4-.8-1.1-.7-1.7a1.44 1.44 0 0 1 .9-1.1c.8-.3 1.8-.9 2.7-.4.6.5.9 1.4.7 2.1zm3.4-5.3c-.6 1-1.2 1.9-1.8 2.8-.3.3-.9.3-1.2 0-.1-.1-.1-.1-.1-.2-.4-.6-.9-1.3-.5-1.9.9-1 2.2-1.5 3.5-1.3-.1-.1.3.2.1.6h0zM35.1 47.7c-1.7 1.5-3 3.3-4 5.2-1 1.7-1.6 3.5-1.9 5.4 4.3-1.7 7.9-5 11.1-8.8 2.4-2.8 4.2-6.4 6.6-9.2-4.4 1.6-8.5 4.1-11.8 7.4zm-12.5 5.9c1.7-2.9 3.9-5.6 6.4-7.8-1.1 2.5-2.5 5-3 8l-2.8 15.6c2.7-1.9 5.6-5 8.4-7.1 2.2-1.6 4.5-2.7 6.7-4.3 1.2-1 2.4-2.1 3.4-3.3-1.3 5.7-6.3 11.4-9.9 14.1-4.5 3.4-6.1 3.9-13.3 11.2-.8-8.9-.6-18.3 4.1-26.4zM8 83.6c.3-4.4.9-8.7 2-13 .8-3.2 2.5-8 5-9.9-.3 1.3-.5 2.7-.6 4.1-.5 4.8.4 10.4.5 15.3a34.32 34.32 0 0 1-.3 6.4c-.2 1.7-.2 3.5-.1 5.2.9-1 1.7-2.1 2.4-3.3 1.5-2.6 3.3-5.1 5.3-7.3 2.6-2.7 5.4-5.2 8.5-7.3-.7 1.9-1.6 3.8-2.7 5.5-.9 1.6-1.3 3-3.4 6.5-3 4.9-4.3 5.6-7.6 10.9-.7 1.1-3.6 5.5-4.3 6.8-1.5-3.2-2.1-6-4-11.2-.8-2.8-1.1-5.7-.7-8.7z"/><path d="M3.4 108C1.8 103.6.7 98.9.2 94.2c-.5-3.3-.2-6.6.8-9.8.3.7.8 2.5.9 2.7.6 2.2 1.3 4.4 2.2 6.5.9 1.9 1.9 3.7 3 5.5 1 1.9 1.8 3.9 2.6 5.9 2.3 5.7 2.5 11.1 3.4 11.7.5-1.1.8-2.2.9-3.4.7-6.4 1.5-12.1 9.5-19.6.7 2.2.4 6.3-.1 8.5-.7 4.1-2 8.1-3.9 11.8-1.1 2.5-2.6 6.1-3 7.3-1.1 3.1-1.4 4.7-2.1 6.6-3.6-6.2-8.3-12.8-11-19.9zm6.2 29c-2.2-3-4-6.2-5.4-9.6-1.2-2.6-2.2-5.4-2.8-8.3-.5-1.6-.6-3.4-.4-5.1 2.1 3.8 3.5 8.1 6.3 11.2 2.2 2.5 4.3 4.6 6 6.8 2.7 3.3 4.8 6.3 7.3 9.7.3-2.1.2-4.1-.1-6.2-.4-3.5-.3-7.1.5-10.6.7-4 1.7-7.9 3.1-11.7 2 3.9 2 8.4 2.5 12.5 1 8-1.5 17.6-2 21.6-.1 1.6 0 3.1.1 4.6-3.6-2.9-7.1-5.9-10.3-9.2-1.7-1.8-3.3-3.7-4.8-5.7zm14.2 29.4c-1.7-1.2-6.3-4.7-8.5-7.5-3.2-4-3.9-5.7-6-10.4-.8-1.6-1.3-3.3-1.5-5 6.8 8.2 13 9.5 19.5 16.3 2.4 2.5 4.8 4.9 6.1 6.1.6.6 1.4 1 2.3 1.2-.1-1-.3-2.1-.8-3-4.3-8.3-5.2-17-4.5-26.3 1.5 2 2.8 4.2 3.9 6.5a61.08 61.08 0 0 1 2.7 5.8c3.7 9.3 4.7 20 7 25.4-7.1-2.5-12.7-3.7-20.2-9.1zM53 188.2c-2.6.2-5.1.1-7.7-.2-10.2-1.6-19.6-9-24.4-17.1 3.5 2.3 7.3 4.2 11.2 5.7 3.4 1.2 6.6 1.5 12.2 3.1 3.4 1 6.8 2.3 7.9 2.8 3.8 1.4 5.4 1.1 5.4 1.1s0-.6-1.4-2.1c-2.8-3.1-3.8-3.8-6.2-6.1-1.3-1.6-2.4-3.3-3.4-5.2-2.5-5-2.8-8.9-5-14.4 8.3 4.9 12.4 11.6 16.8 20.1 1.3 2.6 2.9 5.1 4.8 7.3 1.1 1.1 2.7 2.8 2.7 2.8s-1.2.3-4.8.8c-1.6.1-5 1.2-8.1 1.4zm40.2.7c4.2.7 8.3 1.7 12.3 3.2 1.3.5 2.6 1.1 3.8 1.8 2.4 1.2 4.7 2.5 6.9 4 3.9 2.7 8.1 5.6 11.9 10 .1.1.7.7.3 1.1-.7.6-2.6 1.4-3.2.9-3.5-3.1-3.3-4.1-7.5-7.9-1.5-1.3-3-2.5-4.7-3.7-2-1.4-4.1-2.7-6.3-3.8a14.9 14.9 0 0 0-6.6-1.2h0c-.8 0-5.1-.1-6.2 0-8.6.6-8.2 1.4-13.1 2.7-4.2 1.1-8.5 1.9-12.8 2.5-4.2.6-8.4.7-12.6.2-5.7-.6-11.8-2.2-16.5-5.1 4.2.1 8.6.9 12.8.6 2.2-.1 4.4-.5 6.6-1 3.9-1.2 6.1-1.6 10.2-2.8 3.5-.9 7.1-1.4 10.7-1.7 4.7-.7 9.4-.6 14 .2zm78.7-141.2c1.7 1.5 3 3.3 4 5.2 1 1.7 1.6 3.5 1.9 5.4-4.4-1.7-7.9-5-11.1-8.8-2.4-2.8-4.2-6.4-6.6-9.2 4.4 1.6 8.5 4.1 11.8 7.4zm12.5 5.9c-1.7-2.9-3.9-5.6-6.4-7.8 1.1 2.7 2.8 6.1 3 8 .6 6 1.8 10.2 2.8 15.6-2.7-1.9-5.6-5-8.4-7.1-2.2-1.6-4.4-2.7-6.7-4.3-1.2-1-2.4-2.1-3.4-3.3 1.4 5.7 6.3 11.4 9.9 14.1 4.5 3.4 6.1 3.9 13.3 11.2.8-8.9.7-18.3-4.1-26.4zm14.7 30c-.3-4.4-.9-8.7-2-13-.8-3.2-2.5-8-5-9.9.3 1.3.5 2.7.6 4.1.5 4.8-.4 10.4-.6 15.3a34.32 34.32 0 0 0 .3 6.4c.2 1.7.2 3.5.1 5.2-.9-1-1.7-2.1-2.4-3.3-2.5-4-3.3-5.1-5.3-7.3-2.5-2.7-5.4-5.2-8.4-7.3.7 1.9 1.6 3.8 2.7 5.5.9 1.6 1.3 3 3.4 6.5 3 4.9 4.3 5.6 7.6 10.9.7 1.1 3.6 5.5 4.3 6.8 1.5-3.2 2.1-6 4-11.2.7-2.8 1-5.7.7-8.7z"/><path d="M203.6 108c1.7-4.4 2.7-9.1 3.2-13.8a23.27 23.27 0 0 0-.9-9.8c-.3.7-.9 2.5-.9 2.7-.6 2.2-1.3 4.4-2.2 6.5-.9 1.9-1.9 3.7-3 5.5-1 1.9-1.8 3.9-2.6 5.9-2.3 5.7-2.5 11.1-3.4 11.7-.5-1.1-.8-2.2-.9-3.4-.7-6.4-1.5-12.1-9.5-19.6-.7 2.2-.4 6.3.1 8.5.7 4.1 2 8.1 3.9 11.8 1.1 2.5 2.6 6.1 3 7.3 1.1 3.1 1.4 4.7 2.1 6.6 3.7-6.2 8.4-12.8 11.1-19.9zm-6.2 29c2.2-3 4-6.2 5.4-9.6 1.3-2.6 2.2-5.4 2.8-8.3.5-1.6.6-3.4.4-5.1-2.1 3.8-3.6 8.1-6.3 11.2-2.2 2.5-4.3 4.6-6 6.8-2.7 3.3-4.8 6.3-7.3 9.7-.3-2.1-.2-4.1.1-6.2.4-3.5.3-7.1-.5-10.6-.7-4-1.7-7.9-3.1-11.7-2 3.9-2 8.4-2.5 12.5-1 8 1.6 17.6 2 21.6.1 1.6 0 3.1-.1 4.6 3.6-2.9 7.1-5.9 10.3-9.2 1.7-1.8 3.3-3.7 4.8-5.7zm-14.2 29.4c1.7-1.2 6.3-4.7 8.5-7.5 3.2-4 3.9-5.7 5.9-10.4.8-1.6 1.3-3.3 1.5-5-6.8 8.2-13 9.5-19.5 16.3-2.4 2.5-4.8 4.9-6.1 6.1-.6.6-1.4 1-2.2 1.2.1-1 .3-2.1.8-3 4.4-8.3 5.2-17 4.5-26.3-1.5 2-2.8 4.2-3.9 6.5a61.08 61.08 0 0 0-2.7 5.8c-3.7 9.3-4.7 20-7 25.4 7.1-2.5 12.7-3.7 20.2-9.1zm-29.1 21.8c2.6.2 5.1.1 7.7-.2 10.2-1.6 19.6-9 24.4-17.1-3.5 2.3-7.3 4.2-11.2 5.7-3.4 1.2-6.6 1.5-12.2 3.1-3.4 1-6.8 2.3-7.9 2.8-3.8 1.4-5.4 1.1-5.4 1.1s0-.6 1.4-2.1c2.8-3.1 3.8-3.8 6.1-6.1 1.3-1.6 2.4-3.3 3.4-5.2 2.5-5 2.8-8.9 5.1-14.4-8.3 4.9-12.4 11.6-16.8 20.1-1.3 2.6-2.9 5.1-4.9 7.3-1.1 1.1-2.7 2.8-2.7 2.8s1.2.3 4.8.8c1.5.1 5 1.2 8.2 1.4zm-40.3.7c-4.2.7-8.3 1.7-12.2 3.2-1.3.5-2.6 1.1-3.8 1.8-2.4 1.2-4.7 2.5-6.9 4-3.9 2.7-8.1 5.6-11.9 10-.1.1-.7.7-.3 1.1.7.6 2.6 1.4 3.2.9 3.5-3.1 3.3-4.1 7.5-7.9 1.5-1.3 3-2.5 4.7-3.7 2-1.4 4.1-2.7 6.3-3.8 2.1-.8 4.3-1.3 6.6-1.2h0c.8 0 5.1-.1 6.1 0 8.6.6 8.2 1.4 13.1 2.7 4.2 1.1 8.5 1.9 12.8 2.5 4.2.6 8.4.7 12.6.2 5.6-.6 11.8-2.2 16.4-5.1-4.2.1-8.6.9-12.8.6-2.2-.1-4.4-.5-6.6-1-3.9-1.2-6.1-1.6-10.2-2.8-3.5-.9-7.1-1.4-10.7-1.7-4.5-.7-9.3-.6-13.9.2zM98.4 0l-7.7 28.7h-8.2L77.3 10l-5 18.7h-8.2L56.4 0h7.7l4.4 19.8L73.8 0h7.4l5 19.8L90.8 0h7.6zm25.4 5.5h-13.2v5.3h12.2v5.5h-12.2v12.3h-7.4V0h20.6v5.5zm28.8 3.6c0 1.3-.2 2.6-.7 3.8-.4 1.2-1.1 2.2-1.9 3.1a12.25 12.25 0 0 1-3.8 2.6 15.81 15.81 0 0 1-5.2.9h-4.6v9.3H129V0h12.2c1.6 0 3.1.1 4.6.5 1.2.3 2.3.8 3.3 1.4 1.1.7 2 1.7 2.6 2.9.7 1.3 1 2.8.9 4.3zm-7.6.1c0-.7-.2-1.5-.6-2.1-.4-.5-.9-1-1.5-1.2-.7-.3-1.5-.5-2.3-.5h-4.2V14h2.1c1 0 2.1-.1 3.1-.2.8-.1 1.5-.5 2.1-.9.5-.4.8-.9 1-1.5.2-.8.3-1.5.3-2.2h0z"/></svg>